<?xml version="1.0" encoding="UTF-8"?>
<svg version="1.1" xmlns="http://www.w3.org/2000/svg" width="511" height="482">
<path d="M0 0 C1.68592758 -0.00856522 1.68592758 -0.00856522 3.40591431 -0.01730347 C4.64528748 -0.01842133 5.88466064 -0.01953918 7.16159058 -0.02069092 C9.11320602 -0.02813828 9.11320602 -0.02813828 11.10424805 -0.03573608 C14.68360165 -0.04887811 18.26293646 -0.05531054 21.84231043 -0.05974674 C24.08406354 -0.06267942 26.32581156 -0.06678497 28.5675621 -0.07125092 C35.59632122 -0.08494124 42.62506865 -0.09459585 49.65384018 -0.09845281 C57.73714665 -0.10291346 65.82028232 -0.12036133 73.90353692 -0.1494534 C80.16619932 -0.17119981 86.4288142 -0.18116422 92.6915139 -0.18249393 C96.42336776 -0.18353434 100.15506144 -0.18927477 103.88687515 -0.20731354 C130.04870973 -0.3265793 154.31277176 0.57522911 174.70407104 19.14044189 C177.67565392 22.29334169 180.24267248 25.57832801 182.70407104 29.14044189 C183.51811401 30.29286377 183.51811401 30.29286377 184.34860229 31.46856689 C194.71859033 47.32545998 197.49285057 68.1751818 193.98532104 86.63653564 C189.79450575 103.14632011 181.06247108 114.66966593 167.70407104 125.14044189 C162.54782104 128.14044189 162.54782104 128.14044189 159.70407104 128.14044189 C159.70407104 128.80044189 159.70407104 129.46044189 159.70407104 130.14044189 C161.01311401 130.29512939 161.01311401 130.29512939 162.34860229 130.45294189 C175.03391996 133.0520291 186.97058747 143.8836113 194.07907104 154.32794189 C205.80653028 172.38259485 208.1521754 193.99736577 204.70407104 214.95294189 C201.02945405 230.70376498 191.25161196 246.91567625 178.70407104 257.14044189 C176.38674084 258.54084288 174.08778886 259.86572812 171.70407104 261.14044189 C171.07670044 261.47632324 170.44932983 261.81220459 169.802948 262.15826416 C156.23616019 269.30617222 144.45111805 273.24002484 128.98873901 273.37750244 C127.92139526 273.39061462 126.85405151 273.40372681 125.75436401 273.41723633 C122.23503154 273.45893338 118.71567649 273.4935 115.19625854 273.52716064 C112.74818803 273.55282342 110.30011879 273.5786074 107.85205078 273.60450745 C102.72609137 273.65741978 97.60011075 273.70635723 92.47409058 273.75299072 C85.89871533 273.81348532 79.32357253 273.88770292 72.74838066 273.96536541 C67.6956358 274.02288574 62.64283366 274.07121829 57.58996964 274.1169529 C55.16499557 274.14038447 52.74005135 274.16714584 50.31515121 274.19727135 C46.93031395 274.23833023 43.54560273 274.2665707 40.16061401 274.29156494 C38.65345322 274.31402031 38.65345322 274.31402031 37.11584473 274.33692932 C36.19346008 274.34114899 35.27107544 274.34536865 34.32073975 274.34971619 C33.521042 274.3576353 32.72134426 274.36555441 31.89741325 274.37371349 C29.43871177 274.11221977 27.87221137 273.28731585 25.70407104 272.14044189 C25.70260448 270.90761034 25.70113792 269.67477879 25.69962692 268.4045887 C25.66389959 239.11804544 25.6076219 209.83161608 25.52615009 180.54516805 C25.51613303 176.93792901 25.50628883 173.33068951 25.49655151 169.72344971 C25.49461014 169.00533465 25.49266877 168.2872196 25.49066857 167.54734348 C25.45967524 155.93052243 25.44267537 144.31372112 25.43087682 132.69686653 C25.41845141 120.77061116 25.39091873 108.84445914 25.34945798 96.91826904 C25.32661008 90.22212853 25.31116111 83.52614448 25.31218719 76.82995987 C25.31293307 70.52459198 25.2950105 64.21955012 25.26290321 57.91426659 C25.25439943 55.60284983 25.2526575 53.29139652 25.25826836 50.97997093 C25.26492226 47.81702796 25.24695317 44.65511808 25.22305298 41.49227905 C25.2308134 40.58368893 25.23857381 39.6750988 25.2465694 38.73897564 C25.13223231 30.15530844 22.53918477 22.14963766 16.59078979 15.79669189 C10.39637884 10.35894812 3.34701136 6.66424286 -4.39749146 3.96466064 C-6.29592896 3.14044189 -6.29592896 3.14044189 -7.29592896 1.14044189 C-4.72274855 -0.14614831 -2.88233002 0.00874639 0 0 Z M70.70407104 43.14044189 C70.68094516 51.9892658 70.66315471 60.83807936 70.65225887 69.68692684 C70.64703058 73.79538474 70.63993392 77.90382203 70.62863159 82.01226807 C70.61780079 85.97391018 70.6117938 89.93553242 70.6091938 93.89718819 C70.6073399 95.411925 70.60371995 96.92666068 70.59834099 98.44138908 C70.59112798 100.55586002 70.59008021 102.67024783 70.59054565 104.784729 C70.58832504 105.99052109 70.58610443 107.19631317 70.58381653 108.43864441 C70.39582643 111.05718591 70.39582643 111.05718591 71.70407104 112.14044189 C74.61957768 112.25444114 77.51037127 112.30465156 80.42672729 112.30841064 C81.76603554 112.31340324 81.76603554 112.31340324 83.13240051 112.3184967 C85.03657516 112.32357726 86.94075877 112.32590468 88.84494019 112.32574463 C91.70244093 112.32789366 94.55953132 112.34593055 97.41696167 112.36505127 C121.89927036 112.87988104 121.89927036 112.87988104 143.04782104 102.06231689 C147.71409452 97.22697554 150.21168882 92.66318146 151.70407104 86.14044189 C151.93094604 85.33606689 152.15782104 84.53169189 152.39157104 83.70294189 C153.76489947 72.44164878 151.77415803 63.50307428 145.30172729 54.14825439 C141.70194495 49.62432254 138.74652908 47.46120397 133.26657104 45.45294189 C132.15411011 45.03657471 131.04164917 44.62020752 129.89547729 44.19122314 C125.42152634 42.71815973 121.37734736 42.01543601 116.6701355 42.01104736 C115.69595169 42.0078952 114.72176788 42.00474304 113.71806335 42.00149536 C112.15846138 42.00453171 112.15846138 42.00453171 110.56735229 42.00762939 C109.49156418 42.00667267 108.41577606 42.00571594 107.30738831 42.00473022 C105.03881776 42.0040509 102.77024526 42.00588792 100.50167847 42.0100708 C97.01896846 42.0154382 93.5363865 42.01010937 90.05368042 42.00372314 C87.84990409 42.00438366 85.64612785 42.00566428 83.44235229 42.00762939 C82.39654495 42.00560516 81.35073761 42.00358093 80.27323914 42.00149536 C79.30851181 42.00464752 78.34378448 42.00779968 77.349823 42.01104736 C76.49886551 42.01184296 75.64790802 42.01263855 74.77116394 42.01345825 C72.64081917 42.00893036 72.64081917 42.00893036 70.70407104 43.14044189 Z M55.70407104 131.14044189 C58.59697785 136.92625551 62.36501137 141.28707697 66.77828979 146.00372314 C70.16649135 149.76304617 69.87223053 152.95890488 69.90939331 157.80303955 C69.91929291 158.59337082 69.9291925 159.38370209 69.93939209 160.19798279 C69.97104226 162.81679259 69.99577838 165.43562055 70.02047729 168.05450439 C70.04104379 169.86769082 70.06204018 171.68087241 70.08345032 173.49404907 C70.13870247 178.27142431 70.18809787 183.04884304 70.23629761 187.82629395 C70.2864897 192.69927857 70.34218772 197.57219987 70.39743042 202.44512939 C70.50505043 212.01017949 70.60648686 221.57528452 70.70407104 231.14044189 C78.05901866 231.21044014 85.4138926 231.26350288 92.76910782 231.29587841 C96.18570098 231.31142947 99.60206362 231.33247002 103.01852417 231.36676025 C106.96055185 231.40607073 110.90249136 231.42023829 114.84469604 231.43341064 C116.05143982 231.4488945 117.25818359 231.46437836 118.50149536 231.48033142 C130.64912643 231.48270372 143.07791864 229.52289365 152.32907104 221.07794189 C160.84667088 211.97560981 164.24015419 201.14604198 163.95016479 188.89825439 C163.07948396 179.14110089 158.70430718 169.51389078 151.45407104 162.82794189 C141.80890649 155.31195274 131.48338728 152.85377335 119.50875854 152.86700439 C117.55692975 152.84672947 115.60510686 152.82587897 113.65328979 152.80450439 C110.60750281 152.78186646 107.56195021 152.76540914 104.51608276 152.75958252 C101.55488911 152.75005334 98.59472158 152.71629298 95.63375854 152.67950439 C94.7273764 152.68454987 93.82099426 152.68959534 92.887146 152.6947937 C87.30685429 152.60819242 84.15867775 151.81168919 79.70407104 148.14044189 C78.86746948 147.47915283 78.03086792 146.81786377 77.16891479 146.13653564 C76.35551636 145.47782471 75.54211792 144.81911377 74.70407104 144.14044189 C72.89848432 142.81844754 71.08581018 141.50608482 69.26657104 140.20294189 C66.12976641 137.94122966 63.06710261 135.66965761 60.14157104 133.14044189 C57.97187985 130.92900302 57.97187985 130.92900302 55.70407104 131.14044189 Z " fill="#092341" transform="translate(49.295928955078125,63.85955810546875)"/>
<path d="M0 0 C2.04931641 -0.36749268 2.04931641 -0.36749268 4.6015625 -0.35644531 C5.55595215 -0.35944641 6.5103418 -0.36244751 7.49365234 -0.36553955 C9.04366943 -0.34701935 9.04366943 -0.34701935 10.625 -0.328125 C11.68283691 -0.32625183 12.74067383 -0.32437866 13.83056641 -0.32244873 C16.07001897 -0.31571782 18.30945958 -0.30178289 20.54882812 -0.28125 C23.9857876 -0.25012869 27.42228868 -0.24028403 30.859375 -0.234375 C33.03125562 -0.22520402 35.20313155 -0.21482795 37.375 -0.203125 C38.92501709 -0.19675018 38.92501709 -0.19675018 40.50634766 -0.19024658 C41.4607373 -0.18063904 42.41512695 -0.17103149 43.3984375 -0.16113281 C44.24067871 -0.15430481 45.08291992 -0.14747681 45.95068359 -0.14044189 C48 0 48 0 50 1 C50.33 38.29 50.66 75.58 51 114 C58.35269811 105.7671858 58.35269811 105.7671858 65 97 C65.66 97 66.32 97 67 97 C67.24105469 96.46246094 67.48210937 95.92492187 67.73046875 95.37109375 C69.33316008 92.37775948 71.2748714 89.7781966 73.3125 87.0625 C74.07175781 86.04285156 74.83101563 85.02320313 75.61328125 83.97265625 C77.91912003 81.10073593 80.38170236 78.58467584 83 76 C84.23411786 74.52114147 85.44281637 73.02069435 86.625 71.5 C89.81962455 67.45106907 93.09463183 63.48860185 96.4375 59.5625 C103.37370106 51.40367088 110.21316535 43.18979334 116.58984375 34.58203125 C117.05519531 34.05996094 117.52054687 33.53789063 118 33 C118.66 33 119.32 33 120 33 C120.2475 32.443125 120.495 31.88625 120.75 31.3125 C122.22807931 28.57805328 124.00950676 26.38859188 126 24 C126.79792969 23.03835937 127.59585938 22.07671875 128.41796875 21.0859375 C129.27841222 20.05709625 130.13909498 19.02845508 131 18 C132.33710195 16.39626045 133.67343357 14.79188109 135.00976562 13.1875 C136.25079422 11.69900993 137.49446928 10.21272752 138.73828125 8.7265625 C140.24378198 6.91164106 141.72079827 5.07270276 143.16796875 3.2109375 C145 1 145 1 147 0 C148.60354452 -0.09016377 150.21082222 -0.11756075 151.81689453 -0.11352539 C152.81778107 -0.11344986 153.8186676 -0.11337433 154.84988403 -0.11329651 C155.93325043 -0.10813522 157.01661682 -0.10297394 158.1328125 -0.09765625 C159.23978485 -0.0962413 160.3467572 -0.09482635 161.48727417 -0.09336853 C165.03320993 -0.08775772 168.57908323 -0.07520337 172.125 -0.0625 C174.52473867 -0.05748639 176.92447833 -0.05292325 179.32421875 -0.04882812 C185.21616725 -0.03778478 191.10807916 -0.0210361 197 0 C197.5949707 1.8515625 197.5949707 1.8515625 198 4 C196.48046875 6.375 196.48046875 6.375 194.1875 9 C193.35605469 9.969375 192.52460938 10.93875 191.66796875 11.9375 C191.00740479 12.69353516 191.00740479 12.69353516 190.33349609 13.46484375 C188.18137844 15.94241896 186.09502741 18.47412708 184 21 C182.75089844 22.49660156 182.75089844 22.49660156 181.4765625 24.0234375 C176.83438948 29.60283157 172.19417458 35.18647149 167.73046875 40.91015625 C167.01503906 41.82667969 166.29960937 42.74320313 165.5625 43.6875 C164.92441406 44.51636719 164.28632813 45.34523437 163.62890625 46.19921875 C163.09136719 46.79347656 162.55382812 47.38773438 162 48 C161.34 48 160.68 48 160 48 C159.62294922 48.84304687 159.62294922 48.84304687 159.23828125 49.703125 C157.81166901 52.34933319 156.11798132 54.44345088 154.1875 56.75 C152.97707031 58.20792969 152.97707031 58.20792969 151.7421875 59.6953125 C151.30100586 60.22543945 150.85982422 60.75556641 150.40527344 61.30175781 C147.85003802 64.38970388 145.33502274 67.51032863 142.8125 70.625 C133.20666194 82.45267335 123.58681123 94.25065739 113.56713867 105.73168945 C103.31738382 115.70929274 103.31738382 115.70929274 98.16015625 127.40625 C99.13136989 130.40571911 100.39694071 132.10224019 102.4375 134.5 C105.66295004 138.38088908 108.81187184 142.30257585 111.875 146.3125 C112.72518749 147.42193089 113.57544862 148.53130535 114.42578125 149.640625 C114.85068848 150.19556641 115.2755957 150.75050781 115.71337891 151.32226562 C116.98684874 152.98285095 118.26416809 154.64039236 119.54296875 156.296875 C124.66978158 162.9395102 129.7406876 169.62150807 134.76220703 176.34423828 C137.10827615 179.48251062 139.4609376 182.61584307 141.8125 185.75 C144.86984502 189.8248411 147.92627935 193.90033753 150.9765625 197.98046875 C156.65174831 205.56736512 162.37195833 213.11717643 168.13769531 220.63549805 C171.85205706 225.48406271 175.5302953 230.3582088 179.1875 235.25 C182.80380947 240.08568051 186.44138772 244.90287111 190.125 249.6875 C190.91777344 250.72261719 191.71054687 251.75773438 192.52734375 252.82421875 C194.27388335 255.08814685 196.0645358 257.3096511 197.87890625 259.51953125 C198.3486084 260.1019458 198.81831055 260.68436035 199.30224609 261.28442383 C200.20291912 262.39986785 201.11548433 263.50584877 202.04150391 264.6003418 C203.26171875 266.125 203.26171875 266.125 205 269 C204.60864258 271.6796875 204.60864258 271.6796875 204 274 C196.9708551 274.07610425 189.94181658 274.12862273 182.91235352 274.16479492 C180.5213626 274.17987543 178.13039932 274.20034277 175.73950195 274.22631836 C172.30152565 274.26273306 168.86391531 274.27973399 165.42578125 274.29296875 C164.35789871 274.30845261 163.29001617 274.32393646 162.18977356 274.33988953 C152.87982981 274.3419977 152.87982981 274.3419977 149 271 C147.27173673 268.85729187 145.7177282 266.77303665 144.1875 264.5 C143.3170824 263.2404179 142.4459794 261.98130919 141.57421875 260.72265625 C141.14415527 260.09633301 140.7140918 259.47000977 140.27099609 258.82470703 C137.80444512 255.28360023 135.18700134 251.85115547 132.59375 248.40234375 C131 246 131 246 129.96875 243.25390625 C129.6490625 242.51011719 129.329375 241.76632812 129 241 C128.01 240.67 127.02 240.34 126 240 C124.19535903 237.59479818 122.52160146 235.19709653 120.875 232.6875 C119.88741728 231.21610316 118.89781264 229.7460615 117.90625 228.27734375 C117.41511719 227.5488623 116.92398438 226.82038086 116.41796875 226.06982422 C113.11793455 221.25272885 109.54043717 216.64162196 106 212 C98.87531421 202.55878121 91.83915176 193.05315991 84.84472656 183.51513672 C83.59797582 181.81529208 82.34989352 180.1164234 81.10058594 178.41845703 C79.27033272 175.92846138 77.44676405 173.4337108 75.625 170.9375 C75.05942383 170.16970215 74.49384766 169.4019043 73.91113281 168.61083984 C73.39647461 167.90266113 72.88181641 167.19448242 72.3515625 166.46484375 C71.89604004 165.842146 71.44051758 165.21944824 70.97119141 164.57788086 C70 163 70 163 70 161 C68.35 161 66.7 161 65 161 C64.78472656 161.52335938 64.56945312 162.04671875 64.34765625 162.5859375 C62.45963604 165.96795631 59.9754736 168.7133171 57.4375 171.625 C52.18241264 177.68804869 50.84840756 180.71300635 50.79467773 188.76416016 C50.78477814 189.67153427 50.77487854 190.57890839 50.76467896 191.51377869 C50.73301391 194.5221798 50.70828676 197.53059673 50.68359375 200.5390625 C50.66302854 202.62129128 50.64203219 204.70351584 50.62062073 206.78573608 C50.5653553 212.27332145 50.51596576 217.76094476 50.46777344 223.24859619 C50.41759103 228.84545276 50.36188797 234.44225404 50.30664062 240.0390625 C50.19900438 251.02599446 50.09757157 262.01297437 50 273 C43.48568186 273.16801189 36.97120174 273.32794171 30.45654297 273.48217773 C28.23904904 273.53564069 26.02159938 273.59097328 23.80419922 273.64819336 C20.62216745 273.72998452 17.44003851 273.8051129 14.2578125 273.87890625 C12.76400558 273.91945885 12.76400558 273.91945885 11.24002075 273.96083069 C10.31921722 273.98092697 9.3984137 274.00102325 8.44970703 274.02172852 C7.23059128 274.05170677 7.23059128 274.05170677 5.98684692 274.08229065 C4 274 4 274 2 273 C2.37685706 270.51592812 2.67735941 269.29287076 4.56640625 267.578125 C5.22511719 267.13984375 5.88382813 266.7015625 6.5625 266.25 C24.01067738 253.6984692 34.6364562 233.27379274 38.69140625 212.44921875 C42.24963155 189.68155339 38.58949202 166.2329759 25.47753906 146.98486328 C20.90345999 140.84023954 15.41452473 135.39978847 10 130 C9 129 9 129 8.65234375 126.83203125 C9.12997875 122.94118436 11.19518455 120.65927254 13.5625 117.6875 C26.89217496 99.9280094 31.39291011 78.67552358 28.49609375 56.7578125 C26.38456443 43.22117143 21.45341187 32.02723682 13.79296875 20.80078125 C12 18 12 18 12 16 C11.401875 15.73960938 10.80375 15.47921875 10.1875 15.2109375 C7.85352153 13.91891371 6.66026805 12.69131187 5 10.625 C2.78700165 7.93457815 0.5147863 5.41806375 -2 3 C-1.34 2.01 -0.68 1.02 0 0 Z " fill="#F09431" transform="translate(228,64)"/>
<path d="M0 0 C1.88235352 0.04060547 1.88235352 0.04060547 3.80273438 0.08203125 C10.59413206 0.30376198 16.18908192 0.70297542 22.3125 3.75 C26.33334848 8.18324319 27.12828677 11.94728321 27.3125 17.75 C26.33219141 21.34446483 24.6547688 23.87539738 22.3125 26.75 C23.281875 27.513125 24.25125 28.27625 25.25 29.0625 C28.20582193 31.38942365 29.06467992 33.16451469 29.65625 36.94921875 C29.98110068 42.12246575 29.55711912 45.19012851 26.1875 49.25 C22.32046755 53.44358185 18.24335642 54.63184653 12.60205078 54.97705078 C11.23726377 54.9765579 9.87244595 54.96579087 8.5078125 54.9453125 C7.86513428 54.94329834 7.22245605 54.94128418 6.56030273 54.93920898 C4.18596135 54.92883578 1.81172263 54.90091395 -0.5625 54.875 C-5.88375 54.83375 -11.205 54.7925 -16.6875 54.75 C-16.6875 36.93 -16.6875 19.11 -16.6875 0.75 C-11.3324014 -1.03503287 -5.59121444 -0.18665663 0 0 Z M-5.6875 10.75 C-6.86411508 14.42692213 -6.83225933 17.9138778 -6.6875 21.75 C-4.58424615 23.85325385 -0.32162352 23.07256139 2.5625 23.125 C3.32691406 23.16238281 4.09132813 23.19976562 4.87890625 23.23828125 C9.1925145 23.30533216 10.82596265 23.12564919 14.36328125 20.39453125 C16.59106025 17.93674175 16.59106025 17.93674175 16.25 15.0625 C15.42946579 12.6072058 15.42946579 12.6072058 13.3125 10.75 C7.01134294 8.94966941 0.68653126 9.70934184 -5.6875 10.75 Z M-5.6875 31.75 C-6.99914842 34.37329684 -6.82012846 36.38698625 -6.8125 39.3125 C-6.81507812 40.30378906 -6.81765625 41.29507813 -6.8203125 42.31640625 C-6.96188431 44.69812348 -6.96188431 44.69812348 -5.6875 45.75 C-2.59118897 46.00068786 0.51973686 45.93522508 3.625 45.9375 C4.49318359 45.94974609 5.36136719 45.96199219 6.25585938 45.97460938 C7.09568359 45.97654297 7.93550781 45.97847656 8.80078125 45.98046875 C9.95380737 45.98663208 9.95380737 45.98663208 11.13012695 45.99291992 C13.63196384 45.71444048 15.1978901 45.10843339 17.3125 43.75 C18.90402808 40.97556523 18.90402808 40.97556523 19.3125 37.75 C18.00382936 34.80549106 17.21847137 33.20298569 14.3125 31.75 C12.79101674 31.66627341 11.26594222 31.64269973 9.7421875 31.65234375 C8.39833984 31.65717773 8.39833984 31.65717773 7.02734375 31.66210938 C6.09019531 31.67048828 5.15304688 31.67886719 4.1875 31.6875 C2.77017578 31.69426758 2.77017578 31.69426758 1.32421875 31.70117188 C-1.01308387 31.71297643 -3.35026061 31.72944241 -5.6875 31.75 Z " fill="#F29734" transform="translate(92.6875,372.25)"/>
<path d="M0 0 C1.43739513 -0.02712066 2.87493863 -0.04645067 4.3125 -0.0625 C5.51326172 -0.07990234 5.51326172 -0.07990234 6.73828125 -0.09765625 C9 0 9 0 12 1 C12.66 0.67 13.32 0.34 14 0 C16.47362762 -0.15061901 18.90041815 -0.23125317 21.375 -0.25 C22.38433594 -0.2809375 22.38433594 -0.2809375 23.4140625 -0.3125 C27.58567794 -0.34534737 29.97577629 0.05332048 33 3 C35.6905528 1.77992056 35.6905528 1.77992056 38 0 C40.59980001 -0.1810363 43.14773781 -0.27813914 45.75 -0.3125 C46.46671875 -0.34150391 47.1834375 -0.37050781 47.921875 -0.40039062 C51.39340173 -0.44187026 53.7566783 -0.130735 56.828125 1.51953125 C63.2112319 8.80959039 62.39984701 17.25468801 62.25 26.4375 C62.24484375 27.72849609 62.2396875 29.01949219 62.234375 30.34960938 C62.15436637 39.84563363 62.15436637 39.84563363 61 41 C59.50261876 41.0979057 58.00057108 41.12974864 56.5 41.125 C55.6853125 41.12757813 54.870625 41.13015625 54.03125 41.1328125 C52 41 52 41 51 40 C50.89060823 38.12075863 50.84413214 36.23778597 50.82421875 34.35546875 C50.78844727 32.62780273 50.78844727 32.62780273 50.75195312 30.86523438 C50.70919281 28.42530477 50.6778296 25.98514721 50.65820312 23.54492188 C50.63048828 22.38927734 50.60277344 21.23363281 50.57421875 20.04296875 C50.55963623 18.98102295 50.54505371 17.91907715 50.5300293 16.82495117 C49.87548172 13.33634223 48.80963852 12.1146277 46 10 C42.90351124 9.83551119 42.90351124 9.83551119 40 11 C36.94787798 14.13457527 36.60692471 16.52734256 36.5234375 20.82421875 C36.47703125 22.49000977 36.47703125 22.49000977 36.4296875 24.18945312 C36.41164062 25.34380859 36.39359375 26.49816406 36.375 27.6875 C36.32423907 29.9831631 36.26976144 32.2787481 36.2109375 34.57421875 C36.18459229 36.09921997 36.18459229 36.09921997 36.15771484 37.6550293 C36 40 36 40 35 41 C33.50261876 41.0979057 32.00057108 41.12974864 30.5 41.125 C29.6853125 41.12757813 28.870625 41.13015625 28.03125 41.1328125 C26 41 26 41 25 40 C24.92481693 38.27755584 24.9168469 36.5520855 24.9375 34.828125 C24.94523437 33.77109375 24.95296875 32.7140625 24.9609375 31.625 C24.98679835 29.3906229 25.01283747 27.15624786 25.0390625 24.921875 C25.04679687 23.8596875 25.05453125 22.7975 25.0625 21.703125 C25.07410156 20.73020508 25.08570313 19.75728516 25.09765625 18.75488281 C25.00213313 16.06017565 24.60695814 13.62258487 24 11 C18.95780988 9.89495111 18.95780988 9.89495111 14.125 11.3125 C11.9104069 12.82725163 11.9104069 12.82725163 11 15 C10.84621148 16.95774069 10.75028537 18.92017352 10.68359375 20.8828125 C10.64169922 22.04941406 10.59980469 23.21601563 10.55664062 24.41796875 C10.49766602 26.25294922 10.49766602 26.25294922 10.4375 28.125 C10.39431641 29.35605469 10.35113281 30.58710938 10.30664062 31.85546875 C10.20031296 34.90352853 10.09828219 37.9516719 10 41 C6.7 41 3.4 41 0 41 C-1.14843858 36.52611636 -1.04131966 32.21233628 -0.87890625 27.63671875 C-0.84348976 26.44874443 -0.84348976 26.44874443 -0.80735779 25.23677063 C-0.73110306 22.72014719 -0.64691584 20.20386159 -0.5625 17.6875 C-0.50924101 15.9759277 -0.4565009 14.26433917 -0.40429688 12.55273438 C-0.27553999 8.36827776 -0.13967078 4.18410597 0 0 Z " fill="#F19837" transform="translate(151,386)"/>
<path d="M0 0 C3.5 0.25 3.5 0.25 5.5 2.25 C5.81884766 4.49658203 5.81884766 4.49658203 5.9140625 7.2578125 C5.95273437 8.24394531 5.99140625 9.23007812 6.03125 10.24609375 C6.0621875 11.27863281 6.093125 12.31117188 6.125 13.375 C6.16367187 14.41527344 6.20234375 15.45554687 6.2421875 16.52734375 C6.33664766 19.10138311 6.42221214 21.67541155 6.5 24.25 C7.09167969 23.58613281 7.68335938 22.92226563 8.29296875 22.23828125 C12.26484194 17.79989115 16.23246063 13.40811528 20.5 9.25 C21.10457031 8.57710938 21.70914062 7.90421875 22.33203125 7.2109375 C27.62433573 1.48351047 27.62433573 1.48351047 32.25 0.25 C34.66666667 0.25 37.08333333 0.25 39.5 0.25 C39.995 1.735 39.995 1.735 40.5 3.25 C39.48828125 4.87109375 39.48828125 4.87109375 37.8125 6.6875 C37.17957031 7.38230469 36.54664063 8.07710938 35.89453125 8.79296875 C34.0663041 10.66891472 32.21769164 12.49268596 30.32421875 14.30078125 C29.77660889 14.82937744 29.22899902 15.35797363 28.66479492 15.90258789 C27.56325253 16.95954519 26.45017066 18.00461812 25.32543945 19.03686523 C23.5808739 20.65249548 23.5808739 20.65249548 21.5 23.25 C21.45727753 26.60676582 23.18536181 28.28277629 25.4375 30.625 C29.41154557 34.97831133 32.75436611 39.67757741 36.12280273 44.50146484 C37.80959266 46.91097504 39.41541281 49.16541281 41.5 51.25 C41.5 52.57 41.5 53.89 41.5 55.25 C37.32170014 55.93941948 33.65775675 56.15118866 29.5 55.25 C25.99764878 52.10503155 23.89052994 48.27043671 21.5 44.25 C20.02009698 42.17303266 18.52079062 40.10971815 17 38.0625 C15.83333333 36.45833333 14.66666667 34.85416667 13.5 33.25 C12.530625 34.03375 11.56125 34.8175 10.5625 35.625 C10.01722656 36.06585938 9.47195313 36.50671875 8.91015625 36.9609375 C5.0710586 40.47036195 6.05561514 46.33426947 5.78125 51.16015625 C5.5 54.25 5.5 54.25 4.5 55.25 C3.00261876 55.3479057 1.50057108 55.37974864 0 55.375 C-0.8146875 55.37757813 -1.629375 55.38015625 -2.46875 55.3828125 C-4.5 55.25 -4.5 55.25 -5.5 54.25 C-5.60382589 52.63419992 -5.63852243 51.01389376 -5.64526367 49.39477539 C-5.65164352 48.3602272 -5.65802338 47.32567902 -5.66459656 46.25978088 C-5.66570938 45.13377975 -5.6668222 44.00777863 -5.66796875 42.84765625 C-5.67296135 41.12560219 -5.67296135 41.12560219 -5.67805481 39.36875916 C-5.68312901 36.93505251 -5.68546298 34.50133888 -5.68530273 32.06762695 C-5.68748854 28.33207808 -5.70563746 24.59682465 -5.72460938 20.86132812 C-5.72754325 18.50260518 -5.72952808 16.14388083 -5.73046875 13.78515625 C-5.73765427 12.66117935 -5.74483978 11.53720245 -5.75224304 10.37916565 C-5.74916641 9.3414653 -5.74608978 8.30376495 -5.74291992 7.23461914 C-5.74434494 6.31830215 -5.74576996 5.40198517 -5.74723816 4.457901 C-5.30257915 0.4869805 -3.79663624 0.2711883 0 0 Z " fill="#283D56" transform="translate(272.5,371.75)"/>
<path d="M0 0 C1.68592758 -0.00856522 1.68592758 -0.00856522 3.40591431 -0.01730347 C4.64528748 -0.01842133 5.88466064 -0.01953918 7.16159058 -0.02069092 C9.11320602 -0.02813828 9.11320602 -0.02813828 11.10424805 -0.03573608 C14.68360165 -0.04887811 18.26293646 -0.05531054 21.84231043 -0.05974674 C24.08406354 -0.06267942 26.32581156 -0.06678497 28.5675621 -0.07125092 C35.59632122 -0.08494124 42.62506865 -0.09459585 49.65384018 -0.09845281 C57.73714665 -0.10291346 65.82028232 -0.12036133 73.90353692 -0.1494534 C80.16619932 -0.17119981 86.4288142 -0.18116422 92.6915139 -0.18249393 C96.42336776 -0.18353434 100.15506144 -0.18927477 103.88687515 -0.20731354 C140.89009803 -0.37593835 140.89009803 -0.37593835 155.64157104 6.70294189 C156.32412964 7.00651611 157.00668823 7.31009033 157.70993042 7.62286377 C162.55357311 9.83944602 162.55357311 9.83944602 163.70407104 12.14044189 C159.78467289 10.89518655 156.11763449 9.43386283 152.39157104 7.70294189 C135.76156679 0.90158595 118.17084467 1.72791593 100.52766299 1.83626008 C96.90159258 1.8552598 93.27551132 1.85679537 89.6493988 1.8603363 C82.81107119 1.86958942 75.97289076 1.89410993 69.1346274 1.92438477 C61.33754632 1.95814104 53.54045749 1.97446765 45.7433213 1.98947108 C29.73015321 2.02066716 13.71713125 2.0732936 -2.29592896 2.14044189 C-0.64500244 2.94034546 -0.64500244 2.94034546 1.03927612 3.75640869 C2.49670735 4.47134175 3.95397411 5.18661016 5.41110229 5.90216064 C6.13495117 6.25177856 6.85880005 6.60139648 7.60458374 6.96160889 C17.70121674 11.94230758 22.9922108 18.48278309 26.70407104 29.14044189 C27.99611167 33.98772222 27.84023269 38.79948183 27.82432556 43.77711487 C27.82517999 44.75327245 27.82603441 45.72943004 27.82691473 46.73516816 C27.82856289 50.00870576 27.82305896 53.28219221 27.81759644 56.5557251 C27.8173144 58.90126036 27.81747263 61.24679572 27.81803894 63.59233093 C27.81832626 69.96374019 27.81244011 76.33513069 27.80546498 82.70653558 C27.79985305 88.68932701 27.79884212 94.67211846 27.79781311 100.65491202 C27.79562517 112.50401471 27.78897205 124.35311052 27.7795105 136.20220947 C27.77032973 147.71164923 27.76325214 159.22108711 27.75900269 170.73052979 C27.75873996 171.44012112 27.75847724 172.14971245 27.75820655 172.88080654 C27.7569015 176.44066232 27.7556378 180.00051811 27.75439465 183.5603739 C27.74403006 213.08706768 27.72634433 242.61375467 27.70407104 272.14044189 C41.30990978 272.12548264 54.91538354 272.08351338 68.52103043 272.00835133 C74.84071724 271.9742604 81.16016689 271.94899936 87.47994995 271.94488525 C93.59455066 271.94056371 99.70861799 271.91178485 105.82305145 271.86701012 C108.13983792 271.85415732 110.45668862 271.84968329 112.77350616 271.8542881 C136.06892782 271.88975939 157.60231217 268.41966598 176.70407104 254.14044189 C177.30606323 253.70344971 177.90805542 253.26645752 178.52828979 252.81622314 C190.01312861 243.80901248 199.2646884 227.0819334 202.30953979 212.80059814 C204.02538061 196.88235216 204.12013156 180.1978951 197.01657104 165.57794189 C195.83849094 163.1146835 194.74555962 160.66806604 193.70407104 158.14044189 C194.03407104 157.48044189 194.36407104 156.82044189 194.70407104 156.14044189 C206.08850035 175.03672825 208.881926 197.0450472 203.87203979 218.51934814 C198.392225 235.50860671 187.68789693 252.59295236 171.70407104 261.14044189 C171.07670044 261.47632324 170.44932983 261.81220459 169.802948 262.15826416 C156.23616019 269.30617222 144.45111805 273.24002484 128.98873901 273.37750244 C127.92139526 273.39061462 126.85405151 273.40372681 125.75436401 273.41723633 C122.23503154 273.45893338 118.71567649 273.4935 115.19625854 273.52716064 C112.74818803 273.55282342 110.30011879 273.5786074 107.85205078 273.60450745 C102.72609137 273.65741978 97.60011075 273.70635723 92.47409058 273.75299072 C85.89871533 273.81348532 79.32357253 273.88770292 72.74838066 273.96536541 C67.6956358 274.02288574 62.64283366 274.07121829 57.58996964 274.1169529 C55.16499557 274.14038447 52.74005135 274.16714584 50.31515121 274.19727135 C46.93031395 274.23833023 43.54560273 274.2665707 40.16061401 274.29156494 C38.65345322 274.31402031 38.65345322 274.31402031 37.11584473 274.33692932 C36.19346008 274.34114899 35.27107544 274.34536865 34.32073975 274.34971619 C33.521042 274.3576353 32.72134426 274.36555441 31.89741325 274.37371349 C29.43871177 274.11221977 27.87221137 273.28731585 25.70407104 272.14044189 C25.70260448 270.90761034 25.70113792 269.67477879 25.69962692 268.4045887 C25.66389959 239.11804544 25.6076219 209.83161608 25.52615009 180.54516805 C25.51613303 176.93792901 25.50628883 173.33068951 25.49655151 169.72344971 C25.49461014 169.00533465 25.49266877 168.2872196 25.49066857 167.54734348 C25.45967524 155.93052243 25.44267537 144.31372112 25.43087682 132.69686653 C25.41845141 120.77061116 25.39091873 108.84445914 25.34945798 96.91826904 C25.32661008 90.22212853 25.31116111 83.52614448 25.31218719 76.82995987 C25.31293307 70.52459198 25.2950105 64.21955012 25.26290321 57.91426659 C25.25439943 55.60284983 25.2526575 53.29139652 25.25826836 50.97997093 C25.26492226 47.81702796 25.24695317 44.65511808 25.22305298 41.49227905 C25.2308134 40.58368893 25.23857381 39.6750988 25.2465694 38.73897564 C25.13223231 30.15530844 22.53918477 22.14963766 16.59078979 15.79669189 C10.39637884 10.35894812 3.34701136 6.66424286 -4.39749146 3.96466064 C-6.29592896 3.14044189 -6.29592896 3.14044189 -7.29592896 1.14044189 C-4.72274855 -0.14614831 -2.88233002 0.00874639 0 0 Z " fill="#D9DBDF" transform="translate(49.295928955078125,63.85955810546875)"/>
<path d="M0 0 C0.78117187 -0.01998047 1.56234375 -0.03996094 2.3671875 -0.06054688 C7.6846492 -0.0560709 10.89596428 0.7670752 15 4.4375 C17.63276822 8.82794466 18.40536801 12.20682668 18.546875 17.296875 C18.60681641 19.21693359 18.60681641 19.21693359 18.66796875 21.17578125 C18.68802979 22.16312256 18.68802979 22.16312256 18.70849609 23.17041016 C18.75018198 25.19634435 18.8128169 27.22082235 18.87890625 29.24609375 C19.14899928 39.13950144 19.14899928 39.13950144 18 41.4375 C16.741875 41.458125 15.48375 41.47875 14.1875 41.5 C13.12595703 41.51740234 13.12595703 41.51740234 12.04296875 41.53515625 C10 41.4375 10 41.4375 7 40.4375 C6.154375 40.746875 5.30875 41.05625 4.4375 41.375 C-1.34519439 43.16237826 -6.76013274 43.29272204 -12.4375 41.125 C-16.00239205 38.77738816 -17.63835046 37.52244861 -19 33.4375 C-19.55165147 28.68968 -19.44453763 25.31069891 -17.25 21 C-14.68380088 18.07738434 -12.79737022 16.63123601 -8.89355469 16.21044922 C-7.79382324 16.22615967 -7.79382324 16.22615967 -6.671875 16.2421875 C-5.87265625 16.24863281 -5.0734375 16.25507813 -4.25 16.26171875 C-3.425 16.27847656 -2.6 16.29523438 -1.75 16.3125 C-0.90953125 16.32152344 -0.0690625 16.33054687 0.796875 16.33984375 C2.86470604 16.36334183 4.93238995 16.39921092 7 16.4375 C6.67 14.7875 6.34 13.1375 6 11.4375 C-1.6855143 10.27306469 -1.6855143 10.27306469 -9 12.4375 C-11.8125 12.5625 -11.8125 12.5625 -14 12.4375 C-15.4783226 9.48085481 -15.06032783 6.69520263 -15 3.4375 C-9.86226667 0.33345278 -5.8255055 -0.05287175 0 0 Z M-7.5625 25.4375 C-8.036875 26.0975 -8.51125 26.7575 -9 27.4375 C-8.43923199 29.92754504 -8.43923199 29.92754504 -7 32.4375 C-3.18566629 34.56643044 -1.49131746 34.56851799 2.75 33.4375 C6.23485489 31.7118511 6.23485489 31.7118511 7.4375 28.25 C7.623125 27.321875 7.80875 26.39375 8 25.4375 C2.94686705 22.56640173 -2.82388715 21.73907046 -7.5625 25.4375 Z " fill="#F09635" transform="translate(239,385.5625)"/>
<path d="M0 0 C0.72896484 -0.01998047 1.45792969 -0.03996094 2.20898438 -0.06054688 C7.40030533 -0.05587422 10.2936683 1.08237343 14.4375 4.4375 C18.63617151 8.92573506 18.56423749 13.87981891 18.5703125 19.796875 C18.57224609 21.59318359 18.57224609 21.59318359 18.57421875 23.42578125 C18.57035156 24.66714844 18.56648438 25.90851563 18.5625 27.1875 C18.56830078 29.07275391 18.56830078 29.07275391 18.57421875 30.99609375 C18.57292969 32.18847656 18.57164062 33.38085938 18.5703125 34.609375 C18.56918457 35.7034668 18.56805664 36.79755859 18.56689453 37.92480469 C18.4375 40.4375 18.4375 40.4375 17.4375 41.4375 C10.14338235 41.67279412 10.14338235 41.67279412 6.4375 40.4375 C5.591875 40.746875 4.74625 41.05625 3.875 41.375 C-1.89890478 43.15966148 -7.30312202 43.25909199 -13 41.1875 C-16.64987947 38.69489939 -18.17241427 36.6077572 -19.5625 32.4375 C-19.95794498 28.24578319 -19.83210901 25.95674698 -17.875 22.1875 C-15.11059825 18.90010332 -12.83812844 16.79724325 -8.47143555 16.10693359 C-6.06226899 15.92000464 -3.66542124 15.81672434 -1.25 15.75 C0.00393555 15.69875977 0.00393555 15.69875977 1.28320312 15.64648438 C3.33417772 15.56444539 5.38581538 15.4992849 7.4375 15.4375 C4.4083625 11.87429525 4.4083625 11.87429525 0.33984375 9.87890625 C-3.5059327 10.11592229 -6.1837212 10.68985579 -9.5625 12.4375 C-12.25 12.1875 -12.25 12.1875 -14.5625 11.4375 C-15.91689668 8.72870665 -15.62751451 6.42816732 -15.5625 3.4375 C-10.18601018 0.76696421 -5.97396877 -0.05841214 0 0 Z M-8.5625 26.4375 C-9.3125 28.9375 -9.3125 28.9375 -8.5625 31.4375 C-6.67442161 33.60733836 -6.67442161 33.60733836 -3.5625 34.4375 C-0.40816717 34.2145213 2.51773911 33.66506155 5.4375 32.4375 C7.5894437 29.20958445 7.63836443 28.15349191 7.4375 24.4375 C4.99795342 23.21772671 3.28444151 23.23596187 0.5625 23.1875 C-0.30117188 23.16171875 -1.16484375 23.1359375 -2.0546875 23.109375 C-5.0588846 23.50244752 -6.38916299 24.35822541 -8.5625 26.4375 Z " fill="#1A304B" transform="translate(336.5625,385.5625)"/>
<path d="M0 0 C0.68126953 -0.01160156 1.36253906 -0.02320313 2.06445312 -0.03515625 C6.77541015 -0.00800376 10.09676635 0.61838833 13.9375 3.375 C19.46865416 9.82332087 18.42635638 18.33727264 18.25 26.3125 C18.23848985 27.66469982 18.22871026 29.01691553 18.22070312 30.36914062 C18.10578992 40.20671008 18.10578992 40.20671008 16.9375 41.375 C10.71266779 41.60989933 10.71266779 41.60989933 7.875 40.75 C5.78231237 40.17652239 5.78231237 40.17652239 3.25 41.3125 C-3.59682868 43.5086526 -9.06902448 42.88076935 -15.43359375 39.640625 C-18.23102435 37.4670818 -18.93860296 35.23836672 -19.43359375 31.7890625 C-19.63499582 23.33017554 -19.63499582 23.33017554 -16.75 19.75 C-13.31900509 16.71795799 -11.03151272 16.24769119 -6.61328125 16.27734375 C-5.76572266 16.28056641 -4.91816406 16.28378906 -4.04492188 16.28710938 C-3.16384766 16.29548828 -2.28277344 16.30386719 -1.375 16.3125 C-0.03598633 16.31926758 -0.03598633 16.31926758 1.33007812 16.32617188 C3.53261987 16.33795017 5.73502599 16.35439836 7.9375 16.375 C5.45923618 12.70447734 5.45923618 12.70447734 1.71875 10.59765625 C0.9659375 10.54480469 0.213125 10.49195313 -0.5625 10.4375 C-1.3153125 10.36660156 -2.068125 10.29570312 -2.84375 10.22265625 C-5.36918022 10.39605727 -6.85087592 11.19150695 -9.0625 12.375 C-11.8125 12.5 -11.8125 12.5 -14.0625 12.375 C-15.52334436 10.05483543 -16.05759202 8.57622699 -16.125 5.8125 C-14.77445449 2.71418971 -13.13877288 2.20023597 -10.08813477 0.98364258 C-6.75030552 -0.01927514 -3.44890324 -0.0590678 0 0 Z M-9.0625 26.375 C-8.72022428 29.34565509 -8.72022428 29.34565509 -8.0625 32.375 C-4.2689269 34.27178655 0.3283346 33.74634586 4.375 32.8125 C6.92499255 30.46650686 6.69182465 27.69161719 6.9375 24.375 C5.02341243 24.12520555 3.10598389 23.90091986 1.1875 23.6875 C0.12015625 23.55988281 -0.9471875 23.43226563 -2.046875 23.30078125 C-5.46807866 23.38498186 -6.61670823 24.06574515 -9.0625 26.375 Z " fill="#192F4B" transform="translate(412.0625,385.625)"/>
<path d="M0 0 C1.23556641 0.01740234 1.23556641 0.01740234 2.49609375 0.03515625 C3.32238281 0.04417969 4.14867187 0.05320312 5 0.0625 C5.63808594 0.07410156 6.27617187 0.08570313 6.93359375 0.09765625 C7.59359375 1.41765625 8.25359375 2.73765625 8.93359375 4.09765625 C9.64515625 3.10765625 9.64515625 3.10765625 10.37109375 2.09765625 C14.21115336 -0.89946345 17.14429718 -0.18406708 21.93359375 0.09765625 C21.93359375 3.06765625 21.93359375 6.03765625 21.93359375 9.09765625 C20.69609375 9.53078125 19.45859375 9.96390625 18.18359375 10.41015625 C15.02839743 11.59963734 12.40090131 12.729041 9.93359375 15.09765625 C8.95964018 18.01951695 8.7551223 20.1157737 8.65234375 23.16796875 C8.61496094 24.14636719 8.57757813 25.12476563 8.5390625 26.1328125 C8.46848364 28.20051176 8.39817314 30.26822019 8.328125 32.3359375 C8.29074219 33.31175781 8.25335938 34.28757812 8.21484375 35.29296875 C8.1694043 36.6389917 8.1694043 36.6389917 8.12304688 38.01220703 C7.93359375 40.09765625 7.93359375 40.09765625 6.93359375 41.09765625 C5.43621251 41.19556195 3.93416483 41.22740489 2.43359375 41.22265625 C1.61890625 41.22523438 0.80421875 41.2278125 -0.03515625 41.23046875 C-2.06640625 41.09765625 -2.06640625 41.09765625 -3.06640625 40.09765625 C-3.16747499 37.22501569 -3.20610297 34.37691997 -3.19921875 31.50390625 C-3.20017548 30.64204712 -3.2011322 29.78018799 -3.20211792 28.89221191 C-3.20279975 27.06632413 -3.20094529 25.24043394 -3.19677734 23.41455078 C-3.19142911 20.60964547 -3.19672224 17.8049003 -3.203125 15 C-3.20246422 13.23046839 -3.20118306 11.46093689 -3.19921875 9.69140625 C-3.20124298 8.8466272 -3.20326721 8.00184814 -3.20535278 7.13146973 C-3.17704913 0.1501441 -3.17704913 0.1501441 0 0 Z " fill="#203751" transform="translate(367.06640625,385.90234375)"/>
<path d="M0 0 C16.5 0 33 0 50 0 C50.495 1.98 50.495 1.98 51 4 C49.48046875 6.375 49.48046875 6.375 47.1875 9 C46.35605469 9.969375 45.52460938 10.93875 44.66796875 11.9375 C44.22759277 12.44152344 43.7872168 12.94554688 43.33349609 13.46484375 C41.18137844 15.94241896 39.09502741 18.47412708 37 21 C35.75089844 22.49660156 35.75089844 22.49660156 34.4765625 24.0234375 C29.83438948 29.60283157 25.19417458 35.18647149 20.73046875 40.91015625 C20.01503906 41.82667969 19.29960937 42.74320313 18.5625 43.6875 C17.92441406 44.51636719 17.28632813 45.34523437 16.62890625 46.19921875 C16.09136719 46.79347656 15.55382812 47.38773438 15 48 C14.34 48 13.68 48 13 48 C12.74863281 48.56203125 12.49726563 49.1240625 12.23828125 49.703125 C10.81166901 52.34933319 9.11798132 54.44345088 7.1875 56.75 C5.97707031 58.20792969 5.97707031 58.20792969 4.7421875 59.6953125 C4.30100586 60.22543945 3.85982422 60.75556641 3.40527344 61.30175781 C0.85003802 64.38970388 -1.66497726 67.51032863 -4.1875 70.625 C-13.79333806 82.45267335 -23.41318877 94.25065739 -33.43286133 105.73168945 C-43.68261618 115.70929274 -43.68261618 115.70929274 -48.83984375 127.40625 C-47.86863011 130.40571911 -46.60305929 132.10224019 -44.5625 134.5 C-41.33704996 138.38088908 -38.18812816 142.30257585 -35.125 146.3125 C-34.27481251 147.42193089 -33.42455138 148.53130535 -32.57421875 149.640625 C-32.14931152 150.19556641 -31.7244043 150.75050781 -31.28662109 151.32226562 C-30.01315126 152.98285095 -28.73583191 154.64039236 -27.45703125 156.296875 C-21.90893938 163.48558932 -16.43360314 170.72414665 -11 178 C-9.81289166 179.583627 -8.62544508 181.16700058 -7.4375 182.75 C-6.625 183.83333333 -5.8125 184.91666667 -5 186 C-5.33 186.66 -5.66 187.32 -6 188 C-12.27722753 180.51805204 -18.18685348 172.81732302 -24.01953125 164.98828125 C-28.2791802 159.27358335 -32.64154154 153.6395389 -37 148 C-37.8778378 146.86215938 -38.7554381 145.72413549 -39.6328125 144.5859375 C-40.06795166 144.02148926 -40.50309082 143.45704102 -40.95141602 142.87548828 C-41.80513447 141.76576664 -42.65723482 140.65479796 -43.50756836 139.54248047 C-45.30911128 137.18603192 -47.12387031 134.84776799 -48.99609375 132.546875 C-49.55425781 131.85078125 -50.11242187 131.1546875 -50.6875 130.4375 C-51.16574219 129.85871094 -51.64398438 129.27992188 -52.13671875 128.68359375 C-53 127 -53 127 -52.94921875 125.15625 C-51.56118319 122.00318157 -49.38282628 119.61829791 -47.125 117.0625 C-46.11700426 115.89729391 -45.10919693 114.7319248 -44.1015625 113.56640625 C-43.5849707 112.97359863 -43.06837891 112.38079102 -42.53613281 111.77001953 C-40.16358521 109.03623535 -37.83262774 106.26783833 -35.5 103.5 C-32.7585478 100.25433906 -30.01312426 97.01239904 -27.25 93.78515625 C-22.56430685 88.30062357 -17.98741099 82.760157 -13.5625 77.0625 C-9.41962097 71.73057715 -5.11806229 66.57157882 -0.69824219 61.46777344 C5.67468134 54.09485419 11.82888886 46.54182835 18 39 C18.85671722 37.95438315 19.71348247 36.90880566 20.5703125 35.86328125 C23.43837711 32.36064485 26.30387013 28.85600056 29.16015625 25.34375 C33.82940238 19.61218861 38.56190126 13.9414572 43.37060547 8.32666016 C45.39939677 5.9470862 47.26258328 3.60612508 49 1 C32.83 1 16.66 1 0 1 C0 0.67 0 0.34 0 0 Z " fill="#FAF4EC" transform="translate(375,64)"/>
<path d="M0 0 C2.04931641 -0.36749268 2.04931641 -0.36749268 4.6015625 -0.35644531 C5.55595215 -0.35944641 6.5103418 -0.36244751 7.49365234 -0.36553955 C9.04366943 -0.34701935 9.04366943 -0.34701935 10.625 -0.328125 C11.68283691 -0.32625183 12.74067383 -0.32437866 13.83056641 -0.32244873 C16.07001897 -0.31571782 18.30945958 -0.30178289 20.54882812 -0.28125 C23.9857876 -0.25012869 27.42228868 -0.24028403 30.859375 -0.234375 C33.03125562 -0.22520402 35.20313155 -0.21482795 37.375 -0.203125 C38.92501709 -0.19675018 38.92501709 -0.19675018 40.50634766 -0.19024658 C41.4607373 -0.18063904 42.41512695 -0.17103149 43.3984375 -0.16113281 C44.24067871 -0.15430481 45.08291992 -0.14747681 45.95068359 -0.14044189 C48 0 48 0 50 1 C50.33 38.29 50.66 75.58 51 114 C52.32 113.01 53.64 112.02 55 111 C53.84826645 113.46800047 52.95216435 115.04783565 51 117 C49.68 117 48.36 117 47 117 C47 79.05 47 41.1 47 2 C32.81 2.33 18.62 2.66 4 3 C6.48198678 8.12105398 6.48198678 8.12105398 9.6875 12.375 C10.8321875 13.674375 10.8321875 13.674375 12 15 C9 15 9 15 7.31640625 13.390625 C6.73761719 12.68421875 6.15882813 11.9778125 5.5625 11.25 C3.14736045 8.36411291 0.71838761 5.6096521 -2 3 C-1.34 2.01 -0.68 1.02 0 0 Z " fill="#E4A259" transform="translate(228,64)"/>
<path d="M0 0 C1.68592758 -0.00856522 1.68592758 -0.00856522 3.40591431 -0.01730347 C4.64528748 -0.01842133 5.88466064 -0.01953918 7.16159058 -0.02069092 C9.11320602 -0.02813828 9.11320602 -0.02813828 11.10424805 -0.03573608 C14.68360165 -0.04887811 18.26293646 -0.05531054 21.84231043 -0.05974674 C24.08406354 -0.06267942 26.32581156 -0.06678497 28.5675621 -0.07125092 C35.59632122 -0.08494124 42.62506865 -0.09459585 49.65384018 -0.09845281 C57.73714665 -0.10291346 65.82028232 -0.12036133 73.90353692 -0.1494534 C80.16619932 -0.17119981 86.4288142 -0.18116422 92.6915139 -0.18249393 C96.42336776 -0.18353434 100.15506144 -0.18927477 103.88687515 -0.20731354 C140.89009803 -0.37593835 140.89009803 -0.37593835 155.64157104 6.70294189 C156.32412964 7.00651611 157.00668823 7.31009033 157.70993042 7.62286377 C162.55357311 9.83944602 162.55357311 9.83944602 163.70407104 12.14044189 C159.78467289 10.89518655 156.11763449 9.43386283 152.39157104 7.70294189 C135.76156679 0.90158595 118.17084467 1.72791593 100.52766299 1.83626008 C96.90159258 1.8552598 93.27551132 1.85679537 89.6493988 1.8603363 C82.81107119 1.86958942 75.97289076 1.89410993 69.1346274 1.92438477 C61.33754632 1.95814104 53.54045749 1.97446765 45.7433213 1.98947108 C29.73015321 2.02066716 13.71713125 2.0732936 -2.29592896 2.14044189 C-0.64500244 2.94034546 -0.64500244 2.94034546 1.03927612 3.75640869 C2.49670735 4.47134175 3.95397411 5.18661016 5.41110229 5.90216064 C6.13495117 6.25177856 6.85880005 6.60139648 7.60458374 6.96160889 C16.16444991 11.18421599 21.81205916 16.5800264 25.66924095 25.41643715 C28.08324466 34.10362292 27.34676131 43.38398606 27.271698 52.32867432 C27.27028626 54.68494639 27.27108197 57.04122066 27.27391052 59.39749146 C27.27534113 65.77079815 27.24600812 72.14363134 27.21104074 78.5168283 C27.18289518 84.50948981 27.17791865 90.50215256 27.17278137 96.4948676 C27.16186311 108.35736467 27.12865634 120.21968893 27.08126831 132.08209229 C27.03530854 143.59901063 26.99994815 155.11588188 26.97872925 166.63287354 C26.97741563 167.34387552 26.97610201 168.0548775 26.97474859 168.787425 C26.96822297 172.35464076 26.96190453 175.92185685 26.95568907 179.48907316 C26.90393304 209.03964085 26.81556132 238.59003831 26.70407104 268.14044189 C26.37407104 268.14044189 26.04407104 268.14044189 25.70407104 268.14044189 C25.70260448 266.92822527 25.70113792 265.71600864 25.69962692 264.46705818 C25.66389845 235.66927661 25.60761907 206.87158397 25.52615009 178.07389713 C25.51613305 174.52674319 25.50628885 170.9795888 25.49655151 167.43243408 C25.49461014 166.72628149 25.49266877 166.02012889 25.49066857 165.29257773 C25.4596765 153.86975255 25.44267573 142.44694745 25.43087682 131.02408816 C25.41845076 119.29671403 25.3909166 107.56944499 25.34945798 95.84213722 C25.32683283 89.25778102 25.31116102 82.6735747 25.31218719 76.08917618 C25.31293316 69.88886531 25.2950071 63.68888592 25.26290321 57.48866081 C25.25440053 55.21594568 25.25265676 52.94319339 25.25826836 50.67046928 C25.26492394 47.56006889 25.24694932 44.45071835 25.22305298 41.34042358 C25.2308134 40.44739725 25.23857381 39.55437092 25.2465694 38.63428319 C25.13098726 30.0978278 22.50237365 22.11032301 16.59078979 15.79669189 C10.39637884 10.35894812 3.34701136 6.66424286 -4.39749146 3.96466064 C-6.29592896 3.14044189 -6.29592896 3.14044189 -7.29592896 1.14044189 C-4.72274855 -0.14614831 -2.88233002 0.00874639 0 0 Z " fill="#F8F8F9" transform="translate(49.295928955078125,63.85955810546875)"/>
<path d="M0 0 C1.43739513 -0.02712066 2.87493863 -0.04645067 4.3125 -0.0625 C5.51326172 -0.07990234 5.51326172 -0.07990234 6.73828125 -0.09765625 C9 0 9 0 12 1 C12.66 0.67 13.32 0.34 14 0 C15.99960012 -0.039992 18.00047242 -0.04346799 20 0 C20 0.33 20 0.66 20 1 C18.948125 1.28875 17.89625 1.5775 16.8125 1.875 C13.77181289 2.77225193 10.91287656 3.76423419 8 5 C8 3.68 8 2.36 8 1 C5.69 1 3.38 1 1 1 C1 13.54 1 26.08 1 39 C3.31 39 5.62 39 8 39 C7.9685791 38.2793335 7.9371582 37.55866699 7.90478516 36.81616211 C7.77939954 33.52359922 7.70181824 30.23153936 7.625 26.9375 C7.54958984 25.2369043 7.54958984 25.2369043 7.47265625 23.50195312 C7.30685261 14.02351172 7.30685261 14.02351172 10.8359375 9.734375 C13.03108413 7.51263293 13.85488953 7.03325448 17 6.3125 C20.72852347 7.1669533 23.0424552 8.5926961 26 11 C26.96338808 13.89016424 27.12877169 15.74175255 27.1328125 18.74609375 C27.13474609 20.12571289 27.13474609 20.12571289 27.13671875 21.53320312 C27.13285156 22.49162109 27.12898438 23.45003906 27.125 24.4375 C27.13080078 25.86932617 27.13080078 25.86932617 27.13671875 27.33007812 C27.13542969 28.25111328 27.13414062 29.17214844 27.1328125 30.12109375 C27.13168457 30.9608374 27.13055664 31.80058105 27.12939453 32.66577148 C27.0051229 34.90758487 26.62396739 36.84895454 26 39 C28.64 39 31.28 39 34 39 C33.97381592 38.24380371 33.94763184 37.48760742 33.9206543 36.70849609 C33.81637002 33.26421085 33.75157228 29.82025823 33.6875 26.375 C33.64560547 25.18519531 33.60371094 23.99539063 33.56054688 22.76953125 C33.42236609 12.87578737 33.42236609 12.87578737 36.3046875 9.20703125 C39 7 39 7 42.4375 6.3125 C45.86244059 6.97345345 48.12092454 7.73809507 50.76293945 10.04516602 C53.63386846 14.58187977 52.58321379 20.65253507 52.375 25.8125 C52.33439453 27.71032227 52.33439453 27.71032227 52.29296875 29.64648438 C52.22233697 32.7660547 52.12373646 35.88215841 52 39 C54.64 39 57.28 39 60 39 C59.95565192 34.83663329 59.88562048 30.67470135 59.79248047 26.51220703 C59.76437608 25.09826552 59.74310933 23.68416998 59.72900391 22.27001953 C59.70742544 20.22869616 59.66070914 18.18920401 59.609375 16.1484375 C59.58842773 14.92302246 59.56748047 13.69760742 59.54589844 12.43505859 C58.89875669 8.36292783 57.60107574 6.17068435 55 3 C51.89064982 1.57220726 51.89064982 1.57220726 49 1 C49 0.67 49 0.34 49 0 C55.32884728 0.3651258 55.32884728 0.3651258 58.3125 3.1875 C61.37167676 8.28612793 62.25185085 12.76803178 62.23046875 18.67578125 C62.22853516 19.91521484 62.22660156 21.15464844 62.22460938 22.43164062 C62.20624023 24.35266602 62.20624023 24.35266602 62.1875 26.3125 C62.18685547 27.61251953 62.18621094 28.91253906 62.18554688 30.25195312 C62.14034598 39.85965402 62.14034598 39.85965402 61 41 C59.50261876 41.0979057 58.00057108 41.12974864 56.5 41.125 C55.6853125 41.12757813 54.870625 41.13015625 54.03125 41.1328125 C52 41 52 41 51 40 C50.89060823 38.12075863 50.84413214 36.23778597 50.82421875 34.35546875 C50.78844727 32.62780273 50.78844727 32.62780273 50.75195312 30.86523438 C50.70919281 28.42530477 50.6778296 25.98514721 50.65820312 23.54492188 C50.63048828 22.38927734 50.60277344 21.23363281 50.57421875 20.04296875 C50.55963623 18.98102295 50.54505371 17.91907715 50.5300293 16.82495117 C49.87548172 13.33634223 48.80963852 12.1146277 46 10 C42.90351124 9.83551119 42.90351124 9.83551119 40 11 C36.94787798 14.13457527 36.60692471 16.52734256 36.5234375 20.82421875 C36.47703125 22.49000977 36.47703125 22.49000977 36.4296875 24.18945312 C36.41164062 25.34380859 36.39359375 26.49816406 36.375 27.6875 C36.32423907 29.9831631 36.26976144 32.2787481 36.2109375 34.57421875 C36.18459229 36.09921997 36.18459229 36.09921997 36.15771484 37.6550293 C36 40 36 40 35 41 C33.50261876 41.0979057 32.00057108 41.12974864 30.5 41.125 C29.6853125 41.12757813 28.870625 41.13015625 28.03125 41.1328125 C26 41 26 41 25 40 C24.92481693 38.27755584 24.9168469 36.5520855 24.9375 34.828125 C24.94523437 33.77109375 24.95296875 32.7140625 24.9609375 31.625 C24.98679835 29.3906229 25.01283747 27.15624786 25.0390625 24.921875 C25.04679687 23.8596875 25.05453125 22.7975 25.0625 21.703125 C25.07410156 20.73020508 25.08570313 19.75728516 25.09765625 18.75488281 C25.00213313 16.06017565 24.60695814 13.62258487 24 11 C18.95780988 9.89495111 18.95780988 9.89495111 14.125 11.3125 C11.9104069 12.82725163 11.9104069 12.82725163 11 15 C10.84621148 16.95774069 10.75028537 18.92017352 10.68359375 20.8828125 C10.64169922 22.04941406 10.59980469 23.21601563 10.55664062 24.41796875 C10.49766602 26.25294922 10.49766602 26.25294922 10.4375 28.125 C10.39431641 29.35605469 10.35113281 30.58710938 10.30664062 31.85546875 C10.20031296 34.90352853 10.09828219 37.9516719 10 41 C6.7 41 3.4 41 0 41 C-1.14843858 36.52611636 -1.04131966 32.21233628 -0.87890625 27.63671875 C-0.84348976 26.44874443 -0.84348976 26.44874443 -0.80735779 25.23677063 C-0.73110306 22.72014719 -0.64691584 20.20386159 -0.5625 17.6875 C-0.50924101 15.9759277 -0.4565009 14.26433917 -0.40429688 12.55273438 C-0.27553999 8.36827776 -0.13967078 4.18410597 0 0 Z " fill="#FAF3EB" transform="translate(151,386)"/>
<path d="M0 0 C1.23556641 0.01740234 1.23556641 0.01740234 2.49609375 0.03515625 C3.32238281 0.04417969 4.14867187 0.05320312 5 0.0625 C5.63808594 0.07410156 6.27617187 0.08570313 6.93359375 0.09765625 C8.07764362 4.1944619 8.05968842 8.13819156 8.03125 12.36328125 C8.02983505 13.15667908 8.0284201 13.9500769 8.02696228 14.76751709 C8.0213779 17.29426897 8.00882829 19.82093129 7.99609375 22.34765625 C7.99107673 24.0638008 7.98651418 25.77994674 7.98242188 27.49609375 C7.97141359 31.69664894 7.95415971 35.89713742 7.93359375 40.09765625 C3.85989951 42.13450337 1.34421511 42.12338215 -3.06640625 41.09765625 C-3.0910533 35.41935547 -3.10924087 29.74108556 -3.12133789 24.06274414 C-3.12637881 22.1294704 -3.13321144 20.19620049 -3.1418457 18.26293945 C-3.1539219 15.49038753 -3.15963682 12.71788584 -3.1640625 9.9453125 C-3.16922379 9.07552261 -3.17438507 8.20573273 -3.17970276 7.30958557 C-3.1798981 5.23859811 -3.12848793 3.16771301 -3.06640625 1.09765625 C-2.06640625 0.09765625 -2.06640625 0.09765625 0 0 Z " fill="#EF9839" transform="translate(133.06640625,385.90234375)"/>
<path d="M0 0 C0.99 1.98 0.99 1.98 2 4 C0.35 4 -1.3 4 -3 4 C-3.21527344 4.52335938 -3.43054688 5.04671875 -3.65234375 5.5859375 C-5.54036396 8.96795631 -8.0245264 11.7133171 -10.5625 14.625 C-15.81758736 20.68804869 -17.15159244 23.71300635 -17.20532227 31.76416016 C-17.21522186 32.67153427 -17.22512146 33.57890839 -17.23532104 34.51377869 C-17.26698609 37.5221798 -17.29171324 40.53059673 -17.31640625 43.5390625 C-17.33697146 45.62129128 -17.35796781 47.70351584 -17.37937927 49.78573608 C-17.4346447 55.27332145 -17.48403424 60.76094476 -17.53222656 66.24859619 C-17.58240897 71.84545276 -17.63811203 77.44225404 -17.69335938 83.0390625 C-17.80099562 94.02599446 -17.90242843 105.01297437 -18 116 C-24.51431814 116.16801189 -31.02879826 116.32794171 -37.54345703 116.48217773 C-39.76095096 116.53564069 -41.97840062 116.59097328 -44.19580078 116.64819336 C-47.37783255 116.72998452 -50.55996149 116.8051129 -53.7421875 116.87890625 C-54.73805878 116.90594131 -55.73393005 116.93297638 -56.75997925 116.96083069 C-57.68078278 116.98092697 -58.6015863 117.00102325 -59.55029297 117.02172852 C-60.3630368 117.04171402 -61.17578064 117.06169952 -62.01315308 117.08229065 C-64 117 -64 117 -66 116 C-65.67 114.68 -65.34 113.36 -65 112 C-64.34 112.33 -63.68 112.66 -63 113 C-63.495 113.99 -63.495 113.99 -64 115 C-49.48 115 -34.96 115 -20 115 C-20.15662109 105.01298828 -20.15662109 105.01298828 -20.31640625 94.82421875 C-20.36242668 90.59041521 -20.40575294 86.35692273 -20.43945312 82.12304688 C-20.49312748 75.41169702 -20.55641982 68.70145872 -20.67895508 61.9909668 C-20.77719385 56.57677402 -20.83065136 51.16377398 -20.85389519 45.74875832 C-20.87044547 43.68946378 -20.90276572 41.63023002 -20.95157051 39.57144737 C-21.36411804 21.43702349 -21.36411804 21.43702349 -15.61865234 14.3515625 C-14.11607136 12.86277854 -12.58077429 11.40548211 -11 10 C-10.05619645 8.92836774 -9.12654366 7.84378945 -8.22265625 6.73828125 C-7.50980469 5.93777344 -6.79695313 5.13726562 -6.0625 4.3125 C-5.33160156 3.48363281 -4.60070312 2.65476563 -3.84765625 1.80078125 C-2 0 -2 0 0 0 Z " fill="#F7EEE1" transform="translate(296,221)"/>
<path d="M0 0 C0.66 0 1.32 0 2 0 C2.33 37.29 2.66 74.58 3 113 C4.32 112.01 5.64 111.02 7 110 C5.84826645 112.46800047 4.95216435 114.04783565 3 116 C2.01 116 1.02 116 0 116 C0 77.72 0 39.44 0 0 Z " fill="#F9F0E5" transform="translate(276,65)"/>
<path d="M0 0 C4.99888048 4.50005376 6.75131877 9.78614419 9 16 C9.48726562 17.30904297 9.48726562 17.30904297 9.984375 18.64453125 C15.25490534 35.6245889 12.92870308 55.30104306 5.8125 71.3125 C0.35968491 81.36769112 -10.19106484 92.78187896 -21 97 C-21.66 97 -22.32 97 -23 97 C-23.495 97.99 -23.495 97.99 -24 99 C-24.66 98.67 -25.32 98.34 -26 98 C-26 97.34 -26 96.68 -26 96 C-25.32195312 95.67128906 -24.64390625 95.34257812 -23.9453125 95.00390625 C-9.36923642 87.55436044 0.87434361 76.63759575 6 61 C6.25152832 60.30567871 6.50305664 59.61135742 6.76220703 58.89599609 C9.07259927 52.06616439 9.45393846 45.79962888 9.375 38.625 C9.38660156 37.57828125 9.39820313 36.5315625 9.41015625 35.453125 C9.37320228 25.47555286 7.61593712 16.17537122 2.8125 7.375 C0 2.16058394 0 2.16058394 0 0 Z " fill="#E3E4E7" transform="translate(232,95)"/>
<path d="M0 0 C1.88235352 0.04060547 1.88235352 0.04060547 3.80273438 0.08203125 C10.58759672 0.30354861 16.19167315 0.70827042 22.3125 3.75 C23.8125 5.9375 23.8125 5.9375 24.3125 7.75 C22.65234375 6.74088542 20.9921875 5.73177083 19.33203125 4.72265625 C15.01751297 2.64467742 10.63622783 2.62998233 5.91796875 2.65234375 C4.83410889 2.65484131 3.75024902 2.65733887 2.63354492 2.65991211 C1.2694751 2.66901611 -0.09459473 2.67812012 -1.5 2.6875 C-5.851875 2.708125 -10.20375 2.72875 -14.6875 2.75 C-15.0175 19.25 -15.3475 35.75 -15.6875 52.75 C-10.36625 52.6675 -5.045 52.585 0.4375 52.5 C2.10570801 52.48420898 3.77391602 52.46841797 5.49267578 52.45214844 C6.83108916 52.4227536 8.1694721 52.39192333 9.5078125 52.359375 C10.189646 52.35824707 10.87147949 52.35711914 11.57397461 52.35595703 C16.57924821 52.20773297 19.428865 50.84969605 23.3125 47.75 C26.51120288 44.01817998 26.75973226 40.65372916 26.6171875 35.91015625 C26.20862957 33.01358526 25.08932232 31.04506216 23.3125 28.75 C25.69564072 29.70325629 27.04379938 30.31395913 28.41015625 32.53125 C30.06579103 36.60224806 30.15443526 40.45677285 29.3125 44.75 C26.08277835 50.37176334 22.53456897 53.05776384 16.3125 54.75 C13.67215702 54.91156856 11.14286997 54.98485549 8.5078125 54.9453125 C7.86513428 54.94329834 7.22245605 54.94128418 6.56030273 54.93920898 C4.18596135 54.92883578 1.81172263 54.90091395 -0.5625 54.875 C-5.88375 54.83375 -11.205 54.7925 -16.6875 54.75 C-16.6875 36.93 -16.6875 19.11 -16.6875 0.75 C-11.3324014 -1.03503287 -5.59121444 -0.18665663 0 0 Z " fill="#FAF0E5" transform="translate(92.6875,372.25)"/>
<path d="M0 0 C13.98375 -0.1546875 13.98375 -0.1546875 28.25 -0.3125 C31.16875977 -0.35802002 34.08751953 -0.40354004 37.09472656 -0.45043945 C39.44334773 -0.46506103 41.79198171 -0.47779773 44.140625 -0.48828125 C45.33155762 -0.51386108 46.52249023 -0.53944092 47.74951172 -0.5657959 C55.9994719 -0.57003447 62.76679684 0.88448021 70 5 C70.495 5.99 70.495 5.99 71 7 C67.11329302 6.39270203 63.68983296 5.18138426 60.0625 3.71875 C55.96834023 2.29199735 52.06898422 1.87575934 47.75073242 1.88647461 C46.19847961 1.88665588 46.19847961 1.88665588 44.61486816 1.88684082 C43.53926636 1.89195679 42.46366455 1.89707275 41.35546875 1.90234375 C39.85916931 1.90385437 39.85916931 1.90385437 38.3326416 1.90539551 C34.61758265 1.91061507 30.90254013 1.92457633 27.1875 1.9375 C18.875625 1.958125 10.56375 1.97875 2 2 C2.33 24.77 2.66 47.54 3 71 C2.01 70.67 1.02 70.34 0 70 C0 46.9 0 23.8 0 0 Z " fill="#F1F2F4" transform="translate(118,105)"/>
<path d="M0 0 C2.16925203 1.00715273 3.83373626 1.82988583 5.51806641 3.55322266 C9.47359705 5.8589943 13.46686963 5.38030093 17.9609375 5.3359375 C19.98047187 5.34846576 22.00000312 5.36150355 24.01953125 5.375 C27.18322123 5.37890278 30.34659502 5.37513271 33.51025391 5.36035156 C49.84615689 5.3140815 64.64553508 5.81780849 77 18 C84.88345992 26.15042968 88.13974171 35.15328056 88.5 46.4375 C88.25743984 54.57581155 87.23732619 64.22282635 81.25 70.3125 C80.5075 70.869375 79.765 71.42625 79 72 C80.03026229 69.30546787 81.11663016 66.78617804 82.5 64.25 C86.98210734 54.53876743 87.47679718 43.60852642 84.04296875 33.484375 C79.65880708 23.04120338 73.79746688 17.19937678 63.7578125 12.11328125 C56.72061222 9.2724851 50.30341395 8.71827698 42.8046875 8.7265625 C40.8528587 8.70628757 38.90103581 8.68543707 36.94921875 8.6640625 C33.90343176 8.64142456 30.85787916 8.62496725 27.81201172 8.61914062 C24.85081807 8.60961144 21.89065054 8.57585109 18.9296875 8.5390625 C18.02330536 8.54410797 17.11692322 8.54915344 16.18307495 8.55435181 C10.62767234 8.46813679 7.40258157 7.71545853 3 4 C1.125 1.75 1.125 1.75 0 0 Z " fill="#DADCE0" transform="translate(126,209)"/>
<path d="M0 0 C1.43739513 -0.02712066 2.87493863 -0.04645067 4.3125 -0.0625 C5.51326172 -0.07990234 5.51326172 -0.07990234 6.73828125 -0.09765625 C9 0 9 0 12 1 C12.66 0.67 13.32 0.34 14 0 C15.99960012 -0.039992 18.00047242 -0.04346799 20 0 C20 0.33 20 0.66 20 1 C18.948125 1.28875 17.89625 1.5775 16.8125 1.875 C13.77181289 2.77225193 10.91287656 3.76423419 8 5 C8 3.68 8 2.36 8 1 C5.69 1 3.38 1 1 1 C1 13.54 1 26.08 1 39 C3.31 39 5.62 39 8 39 C7.9685791 38.2793335 7.9371582 37.55866699 7.90478516 36.81616211 C7.77939954 33.52359922 7.70181824 30.23153936 7.625 26.9375 C7.54958984 25.2369043 7.54958984 25.2369043 7.47265625 23.50195312 C7.30685261 14.02351172 7.30685261 14.02351172 10.8359375 9.734375 C13.03108413 7.51263293 13.85488953 7.03325448 17 6.3125 C20.72852347 7.1669533 23.0424552 8.5926961 26 11 C26.98043964 13.94131891 27.11621202 15.82501665 27.09765625 18.88671875 C27.09443359 19.82451172 27.09121094 20.76230469 27.08789062 21.72851562 C27.07951172 22.70498047 27.07113281 23.68144531 27.0625 24.6875 C27.05798828 25.67556641 27.05347656 26.66363281 27.04882812 27.68164062 C27.03704303 30.12115474 27.02059011 32.56054689 27 35 C26.67 35 26.34 35 26 35 C25.93941406 33.68644531 25.87882812 32.37289062 25.81640625 31.01953125 C25.73196744 29.28384459 25.64732112 27.54816802 25.5625 25.8125 C25.52318359 24.94818359 25.48386719 24.08386719 25.44335938 23.19335938 C25.23652984 19.04085878 24.99896469 15.05462138 24 11 C18.95780988 9.89495111 18.95780988 9.89495111 14.125 11.3125 C11.9104069 12.82725163 11.9104069 12.82725163 11 15 C10.84621148 16.95774069 10.75028537 18.92017352 10.68359375 20.8828125 C10.64169922 22.04941406 10.59980469 23.21601563 10.55664062 24.41796875 C10.49766602 26.25294922 10.49766602 26.25294922 10.4375 28.125 C10.39431641 29.35605469 10.35113281 30.58710938 10.30664062 31.85546875 C10.20031296 34.90352853 10.09828219 37.9516719 10 41 C6.7 41 3.4 41 0 41 C-1.14843858 36.52611636 -1.04131966 32.21233628 -0.87890625 27.63671875 C-0.84348976 26.44874443 -0.84348976 26.44874443 -0.80735779 25.23677063 C-0.73110306 22.72014719 -0.64691584 20.20386159 -0.5625 17.6875 C-0.50924101 15.9759277 -0.4565009 14.26433917 -0.40429688 12.55273438 C-0.27553999 8.36827776 -0.13967078 4.18410597 0 0 Z " fill="#F8E6D2" transform="translate(151,386)"/>
<path d="M0 0 C4.0966002 2.96550351 6.87508716 6.29490735 9.6875 10.4375 C10.56443251 11.69668937 11.44338995 12.95447058 12.32421875 14.2109375 C12.9901001 15.16178223 12.9901001 15.16178223 13.66943359 16.13183594 C15.70979039 18.99657176 17.84475842 21.78365198 20 24.5625 C20.62032104 25.36324951 20.62032104 25.36324951 21.25317383 26.18017578 C22.08764314 27.2554542 22.92284516 28.33016443 23.75878906 29.40429688 C27.0641602 33.65368826 30.34494133 37.92172675 33.61572266 42.19775391 C34.60381301 43.48418829 35.59614923 44.76736607 36.59130859 46.04833984 C38.25662459 48.19265933 39.91021653 50.3456292 41.5625 52.5 C42.08763184 53.17071533 42.61276367 53.84143066 43.15380859 54.5324707 C47.79598903 60.6260048 47.79598903 60.6260048 48 65 C46.38318984 66.61681016 44.6110274 66.1436105 42.37597656 66.16113281 C40.89874115 66.17554413 40.89874115 66.17554413 39.3916626 66.19024658 C38.31882019 66.19449646 37.24597778 66.19874634 36.140625 66.203125 C34.4958316 66.21167511 34.4958316 66.21167511 32.81781006 66.22039795 C30.4908546 66.22986636 28.16388561 66.2363892 25.83691406 66.24023438 C22.27905744 66.24992089 18.72178291 66.28091968 15.1640625 66.3125 C12.90625344 66.3190316 10.64844024 66.32428145 8.390625 66.328125 C7.32587952 66.3404718 6.26113403 66.3528186 5.16412354 66.36553955 C-4.42091539 66.33669985 -4.42091539 66.33669985 -8 63 C-8 62.01 -8 61.02 -8 60 C-7.60858322 60.48608231 -7.21716644 60.97216461 -6.81388855 61.47297668 C-4.43322415 63.47714064 -3.0652744 63.39425587 0.0222168 63.43237305 C1.04304855 63.45216721 2.06388031 63.47196136 3.11564636 63.49235535 C4.76576469 63.50194023 4.76576469 63.50194023 6.44921875 63.51171875 C8.14084892 63.53864555 8.14084892 63.53864555 9.86665344 63.56611633 C13.4735641 63.62035853 17.08034138 63.65416035 20.6875 63.6875 C23.13087799 63.72066071 25.57423835 63.75514919 28.01757812 63.79101562 C34.01159916 63.87609299 40.00563716 63.94438392 46 64 C43.00383742 58.56944185 43.00383742 58.56944185 39.37109375 53.5625 C38.89913574 52.9854834 38.42717773 52.4084668 37.94091797 51.81396484 C37.44479004 51.21535645 36.94866211 50.61674805 36.4375 50 C32.27294081 44.88865931 28.24494067 39.71306433 24.375 34.375 C20.93807896 29.63609385 17.45787573 24.94223852 13.875 20.3125 C6.58882289 10.87783477 6.58882289 10.87783477 3.875 7.3125 C3.12992187 6.33925781 2.38484375 5.36601562 1.6171875 4.36328125 C0 2 0 2 0 0 Z " fill="#FBF5ED" transform="translate(385,272)"/>
<path d="M0 0 C0.68126953 -0.01160156 1.36253906 -0.02320313 2.06445312 -0.03515625 C6.77541015 -0.00800376 10.09676635 0.61838833 13.9375 3.375 C19.46865416 9.82332087 18.42635638 18.33727264 18.25 26.3125 C18.23848985 27.66469982 18.22871026 29.01691553 18.22070312 30.36914062 C18.10578992 40.20671008 18.10578992 40.20671008 16.9375 41.375 C10.71266779 41.60989933 10.71266779 41.60989933 7.875 40.75 C5.78231237 40.17652239 5.78231237 40.17652239 3.25 41.3125 C-2.3763248 43.11717022 -7.16099859 43.17563217 -12.625 40.875 C-13.429375 40.38 -14.23375 39.885 -15.0625 39.375 C-14.0725 38.88 -14.0725 38.88 -13.0625 38.375 C-12.4025 38.705 -11.7425 39.035 -11.0625 39.375 C-5.02334865 39.84974133 0.22809151 39.36088121 5.9375 37.375 C5.9375 36.715 5.9375 36.055 5.9375 35.375 C6.5975 35.375 7.2575 35.375 7.9375 35.375 C8.2675 36.365 8.5975 37.355 8.9375 38.375 C12.4025 38.87 12.4025 38.87 15.9375 39.375 C15.89322116 35.19332183 15.82326123 31.01308063 15.72998047 26.83227539 C15.70183986 25.41149808 15.68059092 23.99056622 15.66650391 22.56958008 C15.64497606 20.52084641 15.59828486 18.473957 15.546875 16.42578125 C15.52592773 15.19512939 15.50498047 13.96447754 15.48339844 12.6965332 C14.84622826 8.81965472 13.64429179 7.16551356 10.9375 4.375 C5.88797625 0.79600136 -1.19089354 1.93412853 -7.0625 2.375 C-11.30974709 3.38328955 -13.5793347 4.65025205 -16.0625 8.375 C-16 6.0625 -16 6.0625 -15.0625 3.375 C-10.02164154 0.66118745 -5.73174408 -0.09816498 0 0 Z " fill="#E3E5E8" transform="translate(412.0625,385.625)"/>
<path d="M0 0 C0.74701172 -0.02900391 1.49402344 -0.05800781 2.26367188 -0.08789062 C7.56229066 -0.14836652 10.45849837 0.85474487 14.6875 4.3125 C18.88617151 8.80073506 18.81423749 13.75481891 18.8203125 19.671875 C18.82224609 21.46818359 18.82224609 21.46818359 18.82421875 23.30078125 C18.82035156 24.54214844 18.81648438 25.78351563 18.8125 27.0625 C18.81830078 28.94775391 18.81830078 28.94775391 18.82421875 30.87109375 C18.82292969 32.06347656 18.82164062 33.25585938 18.8203125 34.484375 C18.81918457 35.5784668 18.81805664 36.67255859 18.81689453 37.79980469 C18.6875 40.3125 18.6875 40.3125 17.6875 41.3125 C10.39338235 41.54779412 10.39338235 41.54779412 6.6875 40.3125 C5.841875 40.621875 4.99625 40.93125 4.125 41.25 C-1.68012931 43.0443127 -7.07807736 43.11050808 -12.8125 41.0625 C-15.35155844 39.28515909 -16.31397198 38.20823124 -17.3125 35.3125 C-16.36375 35.9725 -15.415 36.6325 -14.4375 37.3125 C-9.24543624 40.27639065 -3.85974189 40.05729456 1.8828125 38.8515625 C3.50252353 38.39909262 5.09911785 37.86498075 6.6875 37.3125 C6.6875 36.6525 6.6875 35.9925 6.6875 35.3125 C7.3475 35.3125 8.0075 35.3125 8.6875 35.3125 C8.6875 36.6325 8.6875 37.9525 8.6875 39.3125 C11.3275 39.3125 13.9675 39.3125 16.6875 39.3125 C16.6431378 35.29160238 16.57309102 31.27202497 16.47998047 27.25195312 C16.45188377 25.88651836 16.43061323 24.52092436 16.41650391 23.15527344 C16.39492018 21.18395962 16.3461454 19.21300369 16.296875 17.2421875 C16.27592773 16.05866699 16.25498047 14.87514648 16.23339844 13.65576172 C15.49462714 9.1312831 13.57509569 5.7508644 9.8984375 2.94921875 C6.6668032 2.01855375 3.66844883 2.08815825 0.3125 2.125 C-0.97398437 2.13144531 -2.26046875 2.13789063 -3.5859375 2.14453125 C-6.91906851 2.29476672 -10.0411925 2.67950706 -13.3125 3.3125 C-9.54131264 -0.45868736 -5.0220607 0.06400247 0 0 Z " fill="#ECEDEF" transform="translate(336.3125,385.6875)"/>
<path d="M0 0 C0.66 0 1.32 0 2 0 C2 2.97 2 5.94 2 9 C0.7625 9.433125 -0.475 9.86625 -1.75 10.3125 C-4.90519632 11.50198109 -7.53269244 12.63138475 -10 15 C-10.97395357 17.9218607 -11.17847145 20.01811745 -11.28125 23.0703125 C-11.31863281 24.04871094 -11.35601562 25.02710938 -11.39453125 26.03515625 C-11.46511011 28.10285551 -11.53542061 30.17056394 -11.60546875 32.23828125 C-11.64285156 33.21410156 -11.68023437 34.18992187 -11.71875 35.1953125 C-11.76418945 36.54133545 -11.76418945 36.54133545 -11.81054688 37.91455078 C-12 40 -12 40 -13 41 C-14.49738124 41.0979057 -15.99942892 41.12974864 -17.5 41.125 C-18.3146875 41.12757813 -19.129375 41.13015625 -19.96875 41.1328125 C-22 41 -22 41 -23 40 C-23.08865208 37.1156618 -23.11521296 34.25537842 -23.09765625 31.37109375 C-23.0962413 30.50686295 -23.09482635 29.64263214 -23.09336853 28.75221252 C-23.08775239 25.98060708 -23.07519719 23.2090812 -23.0625 20.4375 C-23.05748708 18.5631522 -23.05292381 16.68880315 -23.04882812 14.81445312 C-23.03777772 10.20960456 -23.0205023 5.60481579 -23 1 C-22.67 1 -22.34 1 -22 1 C-22 13.54 -22 26.08 -22 39 C-19.36 39 -16.72 39 -14 39 C-14.0314209 38.33991943 -14.0628418 37.67983887 -14.09521484 36.99975586 C-14.22072269 33.97935924 -14.29821567 30.95951202 -14.375 27.9375 C-14.45041016 26.37999023 -14.45041016 26.37999023 -14.52734375 24.79101562 C-14.62772874 19.52080355 -14.58485345 15.9592991 -11.1015625 11.81640625 C-8.35676209 9.07118882 -6.87155986 8.0174312 -2.875 7.9375 C-1.92625 7.958125 -0.9775 7.97875 0 8 C0 5.36 0 2.72 0 0 Z " fill="#EBEDEE" transform="translate(387,386)"/>
<path d="M0 0 C0.33 0 0.66 0 1 0 C1 16.83 1 33.66 1 51 C3.64 51 6.28 51 9 51 C8.9071875 50.01 8.814375 49.02 8.71875 48 C8.03845361 37.49925325 8.03845361 37.49925325 10.78125 33.22265625 C12.76492669 31.29136539 14.73203288 29.58453953 17 28 C21.01130561 29.52682578 22.78586892 32.0014061 25.25 35.4375 C25.95640625 36.40558594 26.6628125 37.37367188 27.390625 38.37109375 C29 41 29 41 29 44 C25.23645964 39.73958774 21.50118038 35.48151089 18 31 C12.88426807 35.57150513 11.59661842 38.46230941 11.1875 45.375 C11.16042969 46.59960938 11.13335937 47.82421875 11.10546875 49.0859375 C11 52 11 52 10 53 C8.50261876 53.0979057 7.00057108 53.12974864 5.5 53.125 C4.6853125 53.12757813 3.870625 53.13015625 3.03125 53.1328125 C1 53 1 53 0 52 C-0.09340434 50.37325222 -0.11745171 48.74245949 -0.11352539 47.11303711 C-0.11344986 46.07203354 -0.11337433 45.03102997 -0.11329651 43.95848083 C-0.10813522 42.8262056 -0.10297394 41.69393036 -0.09765625 40.52734375 C-0.0962413 39.37456436 -0.09482635 38.22178497 -0.09336853 37.03407288 C-0.08775005 33.33518936 -0.07519442 29.63636536 -0.0625 25.9375 C-0.05748738 23.43684983 -0.05292406 20.93619871 -0.04882812 18.43554688 C-0.03777462 12.29034412 -0.02101852 6.14517631 0 0 Z " fill="#D9DBDE" transform="translate(267,374)"/>
<path d="M0 0 C3.77556505 -0.35957762 5.76995408 -0.11727831 9.1875 1.625 C13.14423017 4.96623881 14.75256695 8.17201426 15.44824219 13.31152344 C15.48079102 14.48231445 15.51333984 15.65310547 15.546875 16.859375 C15.60681641 18.77943359 15.60681641 18.77943359 15.66796875 20.73828125 C15.68802979 21.72562256 15.68802979 21.72562256 15.70849609 22.73291016 C15.75018198 24.75884435 15.8128169 26.78332235 15.87890625 28.80859375 C16.14899928 38.70200144 16.14899928 38.70200144 15 41 C13.741875 41.020625 12.48375 41.04125 11.1875 41.0625 C10.12595703 41.07990234 10.12595703 41.07990234 9.04296875 41.09765625 C7 41 7 41 4 40 C3.154375 40.309375 2.30875 40.61875 1.4375 40.9375 C-4.34519439 42.72487826 -9.76013274 42.85522204 -15.4375 40.6875 C-19.00239205 38.33988816 -20.63835046 37.08494861 -22 33 C-22.11632729 31.48233461 -22.17496239 29.9595654 -22.1875 28.4375 C-22.20167969 27.65246094 -22.21585938 26.86742187 -22.23046875 26.05859375 C-22 24 -22 24 -20 22 C-20.05220703 22.99580078 -20.05220703 22.99580078 -20.10546875 24.01171875 C-20.39799131 31.03685567 -20.39799131 31.03685567 -17 37 C-12.34740688 39.90658687 -7.30721852 39.54332059 -2 39 C0.97984167 37.66829691 0.97984167 37.66829691 3 36 C3.66 36 4.32 36 5 36 C5.33 36.66 5.66 37.32 6 38 C7.89533342 38.46523063 7.89533342 38.46523063 10.0625 38.625 C11.361875 38.74875 12.66125 38.8725 14 39 C13.94792774 34.47824261 13.85279775 29.95836625 13.75 25.4375 C13.73582031 24.16068359 13.72164062 22.88386719 13.70703125 21.56835938 C13.51534314 12.05118409 13.51534314 12.05118409 9 4 C6.72220273 2.56702529 6.72220273 2.56702529 4.25 2.0625 C3.45078125 1.84722656 2.6515625 1.63195312 1.828125 1.41015625 C1.22484375 1.27480469 0.6215625 1.13945312 0 1 C0 0.67 0 0.34 0 0 Z " fill="#FBF4ED" transform="translate(242,386)"/>
<path d="M0 0 C1.58894072 1.58894072 1.16998411 3.24801424 1.1875 5.4375 C1.20167969 6.24058594 1.21585938 7.04367187 1.23046875 7.87109375 C1 10 1 10 -1 12 C-3.68839385 12.26991906 -6.29141936 12.08737357 -9 12 C-10.42258812 8.17679443 -11.24042276 5.08718695 -11 1 C-3.46153846 -1.46449704 -3.46153846 -1.46449704 0 0 Z " fill="#FBF4EB" transform="translate(140,371)"/>
<path d="M0 0 C1.23556641 0.01740234 1.23556641 0.01740234 2.49609375 0.03515625 C3.32238281 0.04417969 4.14867187 0.05320312 5 0.0625 C5.63808594 0.07410156 6.27617187 0.08570313 6.93359375 0.09765625 C8.07764362 4.1944619 8.05968842 8.13819156 8.03125 12.36328125 C8.02983505 13.15667908 8.0284201 13.9500769 8.02696228 14.76751709 C8.0213779 17.29426897 8.00882829 19.82093129 7.99609375 22.34765625 C7.99107673 24.0638008 7.98651418 25.77994674 7.98242188 27.49609375 C7.97141359 31.69664894 7.95415971 35.89713742 7.93359375 40.09765625 C3.85989951 42.13450337 1.34421511 42.12338215 -3.06640625 41.09765625 C-3.0910533 35.41935547 -3.10924087 29.74108556 -3.12133789 24.06274414 C-3.12637881 22.1294704 -3.13321144 20.19620049 -3.1418457 18.26293945 C-3.1539219 15.49038753 -3.15963682 12.71788584 -3.1640625 9.9453125 C-3.16922379 9.07552261 -3.17438507 8.20573273 -3.17970276 7.30958557 C-3.1798981 5.23859811 -3.12848793 3.16771301 -3.06640625 1.09765625 C-2.06640625 0.09765625 -2.06640625 0.09765625 0 0 Z M-1.06640625 1.09765625 C-2.47266176 2.2759521 -2.47266176 2.2759521 -2.17993164 5.60766602 C-2.17977251 7.16814047 -2.17407767 8.72862018 -2.1640625 10.2890625 C-2.16264755 11.10890121 -2.1612326 11.92873993 -2.15977478 12.77342224 C-2.15415914 15.40237007 -2.14160404 18.03123398 -2.12890625 20.66015625 C-2.12389326 22.43814982 -2.11933001 24.21614471 -2.11523438 25.99414062 C-2.10418464 30.3620117 -2.08690956 34.72981973 -2.06640625 39.09765625 C0.57359375 39.09765625 3.21359375 39.09765625 5.93359375 39.09765625 C5.93359375 26.55765625 5.93359375 14.01765625 5.93359375 1.09765625 C3.62359375 1.09765625 1.31359375 1.09765625 -1.06640625 1.09765625 Z " fill="#FBF4EC" transform="translate(133.06640625,385.90234375)"/>
<path d="M0 0 C0 0.33 0 0.66 0 1 C-4.95 2.485 -4.95 2.485 -10 4 C-10 5.65 -10 7.3 -10 9 C-9.38125 8.67 -8.7625 8.34 -8.125 8 C-2.72563139 6.27220204 2.76303928 6.02132969 8 8.3125 C10 10 10 10 12 13 C12 14.32 12 15.64 12 17 C10.06447266 17.03867187 10.06447266 17.03867187 8.08984375 17.078125 C6.37236339 17.13443583 4.65491678 17.19178248 2.9375 17.25 C1.66616211 17.27126953 1.66616211 17.27126953 0.36914062 17.29296875 C-5.53731064 17.52101706 -9.09917644 18.67515362 -14 22 C-13.03924813 19.59812034 -12.42273976 18.26207125 -10.19238281 16.87939453 C-7.82783001 15.93094028 -6.20664283 15.76847653 -3.671875 15.8046875 C-2.87265625 15.81113281 -2.0734375 15.81757813 -1.25 15.82421875 C-0.425 15.84097656 0.4 15.85773438 1.25 15.875 C2.09046875 15.88402344 2.9309375 15.89304687 3.796875 15.90234375 C5.86470604 15.92584183 7.93238995 15.96171092 10 16 C9.67 14.35 9.34 12.7 9 11 C1.3144857 9.83556469 1.3144857 9.83556469 -6 12 C-8.8125 12.125 -8.8125 12.125 -11 12 C-12.4783226 9.04335481 -12.06032783 6.25770263 -12 3 C-7.77050005 0.58314288 -4.87664009 -0.34833144 0 0 Z " fill="#FAEEE0" transform="translate(236,386)"/>
<path d="M0 0 C3.04317386 -0.13558695 6.08025562 -0.23437239 9.125 -0.3125 C10.40890625 -0.3753418 10.40890625 -0.3753418 11.71875 -0.43945312 C16.07422427 -0.52321225 19.08073782 -0.43824841 22.578125 2.33203125 C25 5 25 5 25.625 8 C24.81841081 11.87162811 23.95954784 13.33863217 21 16 C17.58878998 16.65055234 14.27096875 16.51616199 10.8125 16.375 C9.88501953 16.36082031 8.95753906 16.34664063 8.00195312 16.33203125 C1.18236958 16.18236958 1.18236958 16.18236958 0 15 C-0.07313567 12.46950598 -0.09247527 9.96695163 -0.0625 7.4375 C-0.05798828 6.72658203 -0.05347656 6.01566406 -0.04882812 5.28320312 C-0.03700864 3.52209987 -0.01907263 1.76103964 0 0 Z M2 3 C0.82338492 6.67692213 0.85524067 10.1638778 1 14 C3.10325385 16.10325385 7.36587648 15.32256139 10.25 15.375 C11.01441406 15.41238281 11.77882813 15.44976562 12.56640625 15.48828125 C16.8800145 15.55533216 18.51346265 15.37564919 22.05078125 12.64453125 C24.27856025 10.18674175 24.27856025 10.18674175 23.9375 7.3125 C23.11696579 4.8572058 23.11696579 4.8572058 21 3 C14.69884294 1.19966941 8.37403126 1.95934184 2 3 Z " fill="#F9EEE1" transform="translate(85,380)"/>
<path d="M0 0 C2.06277466 -0.36076355 2.06277466 -0.36076355 4.63330078 -0.34057617 C6.07456833 -0.34023628 6.07456833 -0.34023628 7.54495239 -0.33988953 C8.58457123 -0.32440567 9.62419006 -0.30892181 10.6953125 -0.29296875 C11.75789276 -0.28872391 12.82047302 -0.28447906 13.91525269 -0.28010559 C17.31875646 -0.26327389 20.72167433 -0.22561303 24.125 -0.1875 C26.42837688 -0.17245899 28.73176302 -0.15876958 31.03515625 -0.14648438 C36.69030505 -0.11335574 42.34511068 -0.06311197 48 0 C48 0.33 48 0.66 48 1 C46.91581787 1.02505615 45.83163574 1.0501123 44.71459961 1.07592773 C40.66843091 1.17053929 36.62241253 1.27062586 32.57641602 1.37231445 C30.82970715 1.41546102 29.0829616 1.45714917 27.33618164 1.49731445 C24.81645684 1.55551169 22.29691329 1.61905997 19.77734375 1.68359375 C19.00414291 1.70030624 18.23094208 1.71701874 17.43431091 1.73423767 C12.87815027 1.85700021 8.49965725 2.26786121 4 3 C6.12741392 7.70270446 8.62060825 11.16393369 12 15 C9 15 9 15 7.31640625 13.390625 C6.73761719 12.68421875 6.15882813 11.9778125 5.5625 11.25 C3.14736045 8.36411291 0.71838761 5.6096521 -2 3 C-1.34 2.01 -0.68 1.02 0 0 Z " fill="#F8E1C9" transform="translate(228,64)"/>
<path d="M0 0 C0.33 0.99 0.66 1.98 1 3 C-0.01171875 4.62109375 -0.01171875 4.62109375 -1.6875 6.4375 C-2.32429688 7.13101562 -2.96109375 7.82453125 -3.6171875 8.5390625 C-7.00002284 12.03281048 -10.43303357 15.47552037 -13.91088867 18.87475586 C-16.2363336 21.15972568 -18.18363971 23.27545956 -20 26 C-20.6875 24.203125 -20.6875 24.203125 -21 22 C-19.8125 20.359375 -19.8125 20.359375 -18 18.75 C-15.26805073 16.21435846 -12.74134413 13.64176095 -10.3125 10.8125 C-7.97085529 8.09640309 -5.58951825 5.48593752 -3 3 C-4.093125 3 -5.18625 3 -6.3125 3 C-8.54166667 3 -10.77083333 3 -13 3 C-8.51925805 -0.36055646 -5.39449293 -0.27429625 0 0 Z " fill="#EFF0F1" transform="translate(312,372)"/>
<path d="M0 0 C0.66 0.33 1.32 0.66 2 1 C-4.42693588 8.72053639 -12.108259 12.74019016 -21 17 C-21.77859375 17.38542969 -22.5571875 17.77085937 -23.359375 18.16796875 C-28.78048616 20.55370569 -34.20982005 20.28738025 -40 20 C-36.95311146 17.96874098 -35.1484966 17.48681698 -31.625 16.75 C-20.20503894 14.00202872 -8.21053829 8.64401392 0 0 Z " fill="#D8DADD" transform="translate(229,315)"/>
<path d="M0 0 C1.04027344 0.00773437 1.04027344 0.00773437 2.1015625 0.015625 C7.22061012 0.09561012 7.22061012 0.09561012 8.375 1.25 C8.41481731 5.24765747 8.31831245 9.04256006 5.8125 12.25 C2.34394959 13.67299504 -0.88850964 14.47189885 -4.625 14.25 C-8.125 12.75 -8.125 12.75 -10.625 10.25 C-11.16505665 6.82964122 -11.44065644 4.55926403 -9.56640625 1.55078125 C-6.56749019 -0.45855285 -3.47750147 -0.10458651 0 0 Z M-8.1875 4.25 C-8.661875 4.91 -9.13625 5.57 -9.625 6.25 C-9.06423199 8.74004504 -9.06423199 8.74004504 -7.625 11.25 C-3.81066629 13.37893044 -2.11631746 13.38101799 2.125 12.25 C5.60985489 10.5243511 5.60985489 10.5243511 6.8125 7.0625 C6.998125 6.134375 7.18375 5.20625 7.375 4.25 C2.32186705 1.37890173 -3.44888715 0.55157046 -8.1875 4.25 Z " fill="#F8E7D5" transform="translate(239.625,406.75)"/>
<path d="M0 0 C3.56331377 -0.10807017 7.1233422 -0.18735316 10.6875 -0.25 C12.19860352 -0.30027344 12.19860352 -0.30027344 13.74023438 -0.3515625 C21.21381768 -0.45022367 21.21381768 -0.45022367 25.14453125 1.80078125 C27.73203013 4.86764835 28 7.02142436 28 11 C26.5625 13.9375 26.5625 13.9375 25 16 C23.68 15.67 22.36 15.34 21 15 C21.99 14.67 22.98 14.34 24 14 C25.89205679 9.95491775 25.89205679 9.95491775 25.25 5.6875 C24.09122685 3.85705945 24.09122685 3.85705945 22 3 C20.4804236 2.84876169 18.95527498 2.75118307 17.4296875 2.68359375 C16.53378906 2.64169922 15.63789062 2.59980469 14.71484375 2.55664062 C13.77769531 2.51732422 12.84054688 2.47800781 11.875 2.4375 C10.93011719 2.39431641 9.98523438 2.35113281 9.01171875 2.30664062 C6.67465828 2.2004106 4.3373487 2.09968729 2 2 C2 6.62 2 11.24 2 16 C1.34 16 0.68 16 0 16 C0 10.72 0 5.44 0 0 Z " fill="#F8EBDB" transform="translate(85,402)"/>
<path d="M0 0 C1.12492355 0.00848969 2.24984711 0.01697937 3.40885925 0.02572632 C6.99620976 0.05927057 10.58129949 0.13455895 14.16796875 0.2109375 C16.60218105 0.24103545 19.03642863 0.26841154 21.47070312 0.29296875 C27.43306095 0.35906539 33.39410334 0.45942649 39.35546875 0.5859375 C38.69546875 1.9059375 38.03546875 3.2259375 37.35546875 4.5859375 C36.86046875 3.1009375 36.86046875 3.1009375 36.35546875 1.5859375 C30.09259036 1.55134011 23.83155518 1.57146624 17.56884766 1.62866211 C15.44095816 1.64175731 13.31295476 1.64257707 11.18505859 1.63061523 C8.11573487 1.61553433 5.04953705 1.64539315 1.98046875 1.68359375 C1.03743896 1.66933853 0.09440918 1.65508331 -0.87719727 1.64039612 C-7.41586207 1.78195748 -10.62635597 3.48117128 -15.26806641 8.08641052 C-15.7222998 8.58125443 -16.1765332 9.07609833 -16.64453125 9.5859375 C-16.64453125 6.11822094 -15.76252193 4.44149511 -13.47573853 1.85614014 C-9.54172994 -0.87265422 -4.59917033 -0.13069508 0 0 Z " fill="#ECB981" transform="translate(384.64453125,64.4140625)"/>
<path d="M0 0 C0.94875 0.66 1.8975 1.32 2.875 2 C8.06706376 4.96389065 13.45275811 4.74479456 19.1953125 3.5390625 C20.81502353 3.08659262 22.41161785 2.55248075 24 2 C24 1.34 24 0.68 24 0 C24.66 0 25.32 0 26 0 C26 1.32 26 2.64 26 4 C28.64 4 31.28 4 34 4 C33.67 4.66 33.34 5.32 33 6 C29.65747276 6.07427838 27.1964086 6.06546953 24 5 C23.154375 5.309375 22.30875 5.61875 21.4375 5.9375 C15.63237069 7.7318127 10.23442264 7.79800808 4.5 5.75 C1.96094156 3.97265909 0.99852802 2.89573124 0 0 Z " fill="#DFE1E4" transform="translate(319,421)"/>
<path d="M0 0 C9.70217938 1.33758201 20.98092893 7.53068136 27.4453125 14.78515625 C34.51220881 24.85282009 34.51220881 24.85282009 33.62109375 30.328125 C33.41613281 30.87984375 33.21117187 31.4315625 33 32 C32.56300781 30.82244141 32.56300781 30.82244141 32.1171875 29.62109375 C27.51815444 17.83426374 22.16511348 12.04902375 11 6 C8.32365463 4.8385671 5.65280997 3.78433912 2.8984375 2.82421875 C1 2 1 2 0 0 Z " fill="#E6E7EA" transform="translate(42,65)"/>
<path d="M0 0 C0.74958984 0.00902344 1.49917969 0.01804687 2.27148438 0.02734375 C4.11862654 0.05087422 5.96560412 0.08674439 7.8125 0.125 C7.8125 1.775 7.8125 3.425 7.8125 5.125 C7.4825 4.135 7.1525 3.145 6.8125 2.125 C4.87530622 2.07093878 2.93768079 2.03217975 1 2 C-0.07894531 1.97679687 -1.15789062 1.95359375 -2.26953125 1.9296875 C-5.38152868 1.89476283 -5.38152868 1.89476283 -8.1875 4.125 C-8.1875 6.105 -8.1875 8.085 -8.1875 10.125 C-3.8975 10.125 0.3925 10.125 4.8125 10.125 C1.9405972 12.9969028 -1.28572589 13.06306708 -5.1875 13.125 C-8.62555898 12.03929716 -9.11674808 11.23112788 -11.1875 8.125 C-11.5 5.0625 -11.5 5.0625 -11.1875 2.125 C-7.39586973 -0.40275351 -4.37875969 -0.09943035 0 0 Z " fill="#E4E6E9" transform="translate(412.1875,407.875)"/>
<path d="M0 0 C0.74958984 0.00902344 1.49917969 0.01804687 2.27148438 0.02734375 C4.11862654 0.05087422 5.96560412 0.08674439 7.8125 0.125 C7.8125 2.435 7.8125 4.745 7.8125 7.125 C7.4825 7.125 7.1525 7.125 6.8125 7.125 C6.8125 5.475 6.8125 3.825 6.8125 2.125 C4.87530622 2.07093878 2.93768079 2.03217975 1 2 C-0.07894531 1.97679687 -1.15789062 1.95359375 -2.26953125 1.9296875 C-5.38152868 1.89476283 -5.38152868 1.89476283 -8.1875 4.125 C-8.43780977 6.70880177 -8.43780977 6.70880177 -8.1875 9.125 C-5.0125906 11.0328584 -3.08164789 11.2859041 0.5625 10.75 C1.76132812 10.58371094 1.76132812 10.58371094 2.984375 10.4140625 C3.58765625 10.31867188 4.1909375 10.22328125 4.8125 10.125 C4.8125 10.785 4.8125 11.445 4.8125 12.125 C1.08266034 13.31854869 -2.29573039 13.53465996 -6.1875 13.125 C-9.125 11 -9.125 11 -11.1875 8.125 C-11.6875 4.9375 -11.6875 4.9375 -11.1875 2.125 C-7.39586973 -0.40275351 -4.37875969 -0.09943035 0 0 Z " fill="#DCDFE3" transform="translate(337.1875,407.875)"/>
<path d="M0 0 C2.64 0 5.28 0 8 0 C8 2.64 8 5.28 8 8 C5.36 8 2.72 8 0 8 C0 5.36 0 2.72 0 0 Z " fill="#EF9735" transform="translate(131,372)"/>
<path d="M0 0 C0.66 0 1.32 0 2 0 C2.66 1.32 3.32 2.64 4 4 C2.35 4 0.7 4 -1 4 C-1.40992188 4.88365234 -1.40992188 4.88365234 -1.828125 5.78515625 C-4.91644914 11.62208887 -9.87262484 15.97134809 -15 20 C-15.66 19.67 -16.32 19.34 -17 19 C-15.66195313 17.57107422 -15.66195313 17.57107422 -14.296875 16.11328125 C-13.11449055 14.84644076 -11.93220405 13.57950884 -10.75 12.3125 C-10.16347656 11.68666016 -9.57695312 11.06082031 -8.97265625 10.41601562 C-6.43009341 7.68775999 -3.99330423 4.99137977 -1.703125 2.04296875 C-0.86007812 1.03169922 -0.86007812 1.03169922 0 0 Z " fill="#F9F0E6" transform="translate(294,221)"/>
<path d="M0 0 C3.59478576 3.49207759 7.00247775 6.97475584 10 11 C10 12.32 10 13.64 10 15 C-0.68430493 16.0735426 -0.68430493 16.0735426 -3.91015625 13.44140625 C-5.25 11.5 -5.25 11.5 -7 8 C-6.67 7.34 -6.34 6.68 -6 6 C-2 10.75 -2 10.75 -2 13 C1.3 13 4.6 13 8 13 C7.4225 12.22914063 6.845 11.45828125 6.25 10.6640625 C5.5075 9.66117187 4.765 8.65828125 4 7.625 C2.88625 6.12839844 2.88625 6.12839844 1.75 4.6015625 C0 2 0 2 0 0 Z " fill="#DEE0E3" transform="translate(304,412)"/>
<path d="M0 0 C0.66 0 1.32 0 2 0 C2.33 0.99 2.66 1.98 3 3 C5.31 3.33 7.62 3.66 10 4 C10 4.33 10 4.66 10 5 C9.34773438 4.97679687 8.69546875 4.95359375 8.0234375 4.9296875 C2.79525476 4.82173092 -1.03100243 5.30842636 -6 7 C-11.80695073 7.64287476 -15.91631383 7.12842226 -21 4 C-20.34 3.67 -19.68 3.34 -19 3 C-18.34 3.33 -17.68 3.66 -17 4 C-10.96084865 4.47474133 -5.70940849 3.98588121 0 2 C0 1.34 0 0.68 0 0 Z " fill="#DDDEE2" transform="translate(418,421)"/>
<path d="M0 0 C0.99 0.495 0.99 0.495 2 1 C2 2.98 2 4.96 2 7 C3.2065625 6.2575 3.2065625 6.2575 4.4375 5.5 C8.81659246 3.65617159 12.31359158 3.3538959 17 4 C20.0625 5.3125 20.0625 5.3125 22 7 C22 7.99 22 8.98 22 10 C21.505 9.505 21.01 9.01 20.5 8.5 C17.00725365 6.40435219 13.98639074 6.48828939 10 7 C8.65909241 7.65129797 7.32407669 8.31513275 6 9 C3.3125 8.75 3.3125 8.75 1 8 C-0.35439668 5.29120665 -0.06501451 2.99066732 0 0 Z " fill="#E8E9EB" transform="translate(321,389)"/>
<path d="M0 0 C0 3.93169105 -1.39419615 5.16427228 -4 8 C-4.66 8 -5.32 8 -6 8 C-6.226875 8.53625 -6.45375 9.0725 -6.6875 9.625 C-9.16430344 14.1068348 -12.07451056 18.17574465 -17 20 C-15.2942574 15.91625155 -12.46902768 12.76426396 -9.625 9.4375 C-9.14289063 8.86064453 -8.66078125 8.28378906 -8.1640625 7.68945312 C-5.65223513 4.73054779 -3.25889846 2.1700248 0 0 Z " fill="#F9F1E7" transform="translate(394,104)"/>
<path d="M0 0 C5.26630019 3.40554079 10.2703193 6.87668862 15 11 C14.01 11 13.02 11 12 11 C12.350625 11.61875 12.70125 12.2375 13.0625 12.875 C13.371875 13.57625 13.68125 14.2775 14 15 C13.67 15.66 13.34 16.32 13 17 C11.58155991 15.43910974 10.16532975 13.8762111 8.75 12.3125 C7.96109375 11.44238281 7.1721875 10.57226562 6.359375 9.67578125 C0 2.46357616 0 2.46357616 0 0 Z " fill="#E0E2E5" transform="translate(95,185)"/>
<path d="M0 0 C0 0.33 0 0.66 0 1 C-4.95 2.485 -4.95 2.485 -10 4 C-10 5.65 -10 7.3 -10 9 C-9.01 8.67 -8.02 8.34 -7 8 C-5.10529184 7.9314505 -3.2083166 7.91519628 -1.3125 7.9375 C-0.31863281 7.94652344 0.67523438 7.95554687 1.69921875 7.96484375 C2.83810547 7.98224609 2.83810547 7.98224609 4 8 C4 8.33 4 8.66 4 9 C2.44033782 9.508783 0.87710759 10.00663469 -0.6875 10.5 C-1.55761719 10.7784375 -2.42773438 11.056875 -3.32421875 11.34375 C-5.99391677 11.99850805 -8.26396684 12.11831495 -11 12 C-12.4783226 9.04335481 -12.06032783 6.25770263 -12 3 C-7.77050005 0.58314288 -4.87664009 -0.34833144 0 0 Z " fill="#FCF4EC" transform="translate(236,386)"/>
<path d="M0 0 C2.2475516 1.79804128 3.17679671 3.0854186 4.1875 5.75 C2.7334375 4.7290625 2.7334375 4.7290625 1.25 3.6875 C-3.14015623 1.13779781 -6.99585152 1.5406698 -11.8125 2.75 C-12.1425 3.08 -12.4725 3.41 -12.8125 3.75 C-14.47867115 3.79063832 -16.14638095 3.792721 -17.8125 3.75 C-17.8125 3.09 -17.8125 2.43 -17.8125 1.75 C-11.67646147 -0.83359517 -6.4677118 -2.87453858 0 0 Z " fill="#E5E7E9" transform="translate(415.8125,394.25)"/>
<path d="M0 0 C2.88082978 2.88082978 2.93218879 6.08955377 3 10 C1.99726365 14.01094542 0.19359743 16.38705665 -3 19 C-3.99 19 -4.98 19 -6 19 C-6 17 -6 17 -3.5625 14.5 C-2.2940625 13.2625 -2.2940625 13.2625 -1 12 C0.26237731 9.47524538 0.09856404 7.68799534 0.0625 4.875 C0.05347656 3.96492188 0.04445313 3.05484375 0.03515625 2.1171875 C0.02355469 1.41851562 0.01195313 0.71984375 0 0 Z " fill="#F9EEE2" transform="translate(117,380)"/>
<path d="M0 0 C0.33 0.99 0.66 1.98 1 3 C-1.64 5.31 -4.28 7.62 -7 10 C-7.66 9.67 -8.32 9.34 -9 9 C-7.02 7.02 -5.04 5.04 -3 3 C-4.093125 3 -5.18625 3 -6.3125 3 C-8.54166667 3 -10.77083333 3 -13 3 C-8.51925805 -0.36055646 -5.39449293 -0.27429625 0 0 Z " fill="#D7DADE" transform="translate(312,372)"/>
<path d="M0 0 C6.04727256 5.66931803 12.24164001 12.07855594 15 20 C11.19195153 16.3429012 7.89187757 12.50430058 4.6875 8.3125 C4.23310547 7.73177734 3.77871094 7.15105469 3.31054688 6.55273438 C0 2.2465343 0 2.2465343 0 0 Z " fill="#FBF5EE" transform="translate(370,252)"/>
<path d="M0 0 C0.66 0 1.32 0 2 0 C1.04398467 6.45310348 -4.19990802 10.18174502 -9 14 C-9.66 13.67 -10.32 13.34 -11 13 C-10.28972656 12.22914062 -9.57945312 11.45828125 -8.84765625 10.6640625 C-7.9191529 9.65114976 -6.99077394 8.63812299 -6.0625 7.625 C-5.59392578 7.11710937 -5.12535156 6.60921875 -4.64257812 6.0859375 C-2.02273232 3.25734146 -2.02273232 3.25734146 0 0 Z " fill="#F8EFE5" transform="translate(424,65)"/>
<path d="M0 0 C0.99 0 1.98 0 3 0 C2.67 5.28 2.34 10.56 2 16 C1.01 16 0.02 16 -1 16 C-0.67 10.72 -0.34 5.44 0 0 Z " fill="#EEEFF0" transform="translate(276,410)"/>
<path d="M0 0 C1 2 1 2 0.109375 5.00390625 C-0.33921875 6.17824219 -0.7878125 7.35257813 -1.25 8.5625 C-1.68828125 9.73941406 -2.1265625 10.91632813 -2.578125 12.12890625 C-3.04734375 13.07636719 -3.5165625 14.02382812 -4 15 C-4.99 15.33 -5.98 15.66 -7 16 C-6.40165275 11.85701333 -4.99335715 8.81805623 -2.9375 5.1875 C-2.11572266 3.72376953 -2.11572266 3.72376953 -1.27734375 2.23046875 C-0.85582031 1.49441406 -0.43429688 0.75835937 0 0 Z " fill="#EDEEF0" transform="translate(241,153)"/>
<path d="M0 0 C4.35647645 1.44950405 7.31757289 3.67747112 10.8125 6.625 C11.78832031 7.44226563 12.76414062 8.25953125 13.76953125 9.1015625 C14.50558594 9.72804687 15.24164063 10.35453125 16 11 C15.01 11.495 15.01 11.495 14 12 C12.22383426 10.75758865 10.45425957 9.50575129 8.6875 8.25 C7.70136719 7.55390625 6.71523437 6.8578125 5.69921875 6.140625 C3.2890307 4.22921682 1.68139018 2.54790867 0 0 Z " fill="#E8E9EB" transform="translate(110,197)"/>
<path d="M0 0 C0.66 0.33 1.32 0.66 2 1 C-6.50470379 9.88456649 -6.50470379 9.88456649 -11 12 C-11.66 12 -12.32 12 -13 12 C-11.79244329 8.37732986 -10.79259683 7.9682155 -7.625 6 C-4.75240317 4.20345736 -2.30233902 2.49543842 0 0 Z " fill="#E1E2E5" transform="translate(229,315)"/>
<path d="M0 0 C1.43739513 -0.02712066 2.87493863 -0.04645067 4.3125 -0.0625 C5.51326172 -0.07990234 5.51326172 -0.07990234 6.73828125 -0.09765625 C9 0 9 0 12 1 C12.66 0.67 13.32 0.34 14 0 C15.99960012 -0.039992 18.00047242 -0.04346799 20 0 C20 0.33 20 0.66 20 1 C18.948125 1.28875 17.89625 1.5775 16.8125 1.875 C13.77181289 2.77225193 10.91287656 3.76423419 8 5 C8 3.68 8 2.36 8 1 C5.36 1 2.72 1 0 1 C0 0.67 0 0.34 0 0 Z " fill="#FAEEDF" transform="translate(151,386)"/>
<path d="M0 0 C3.31419098 1.44902969 5.56592592 3.2680214 8.125 5.8125 C8.80820313 6.47894531 9.49140625 7.14539063 10.1953125 7.83203125 C12.10934237 10.13135285 13.04569183 12.18134751 14 15 C8.38416581 10.91575695 3.84052559 5.76078839 0 0 Z " fill="#F8ECDE" transform="translate(239,194)"/>
<path d="M0 0 C-0.49371094 0.51949219 -0.98742187 1.03898437 -1.49609375 1.57421875 C-2.13675781 2.27160156 -2.77742188 2.96898437 -3.4375 3.6875 C-4.07558594 4.37199219 -4.71367187 5.05648438 -5.37109375 5.76171875 C-7.16221098 8.22289422 -7.62798558 10.00816574 -8 13 C-8.33 13 -8.66 13 -9 13 C-9.29254918 8.02666392 -9.16504232 4.9563029 -6 1 C-2.57142857 -1.28571429 -2.57142857 -1.28571429 0 0 Z " fill="#657385" transform="translate(326,405)"/>
<path d="M0 0 C0.66 0 1.32 0 2 0 C2 2.97 2 5.94 2 9 C-2 10 -2 10 -4.25 9.0625 C-4.8275 8.711875 -5.405 8.36125 -6 8 C-4.02 8 -2.04 8 0 8 C0 5.36 0 2.72 0 0 Z " fill="#E5E6E8" transform="translate(387,386)"/>
<path d="M0 0 C0.99 0.33 1.98 0.66 3 1 C-2.14285714 7.57142857 -2.14285714 7.57142857 -6 9 C-4.47291037 5.56404834 -2.40072955 2.88087546 0 0 Z " fill="#F4C490" transform="translate(373,65)"/>
<path d="M0 0 C4.95 0 9.9 0 15 0 C15 0.33 15 0.66 15 1 C13.3603125 1.2165625 13.3603125 1.2165625 11.6875 1.4375 C8.06877013 1.88288104 8.06877013 1.88288104 5 3 C2.3125 2.0625 2.3125 2.0625 0 1 C0 0.67 0 0.34 0 0 Z " fill="#283850" transform="translate(45,65)"/>
<path d="M0 0 C3.21043882 1.38188453 5.04936365 2.92421903 7.25 5.625 C8.03117188 6.57246094 8.03117188 6.57246094 8.828125 7.5390625 C9.40820312 8.26222656 9.40820312 8.26222656 10 9 C7 9 7 9 5.17578125 7.28515625 C4.56089844 6.55167969 3.94601563 5.81820312 3.3125 5.0625 C2.68988281 4.33160156 2.06726563 3.60070312 1.42578125 2.84765625 C0 1 0 1 0 0 Z " fill="#F8EEE1" transform="translate(230,70)"/>
<path d="M0 0 C0.99 0 1.98 0 3 0 C2.67 2.97 2.34 5.94 2 9 C1.01 8.34 0.02 7.68 -1 7 C-1.25 3.9375 -1.25 3.9375 -1 1 C-0.67 0.67 -0.34 0.34 0 0 Z " fill="#E5E6E9" transform="translate(402,409)"/>
<path d="M0 0 C0 0.33 0 0.66 0 1 C-1.36125 1.37125 -1.36125 1.37125 -2.75 1.75 C-6.10351489 3.03981342 -7.67708236 4.31971042 -10 7 C-10 4 -10 4 -8.375 1.8125 C-5.39500988 -0.46170299 -3.66075376 -0.3327958 0 0 Z " fill="#F6E5D1" transform="translate(171,393)"/>
<path d="M0 0 C0 3.93169105 -1.39419615 5.16427228 -4 8 C-4.66 8 -5.32 8 -6 8 C-5.65120368 4.74456771 -4.97866739 3.98126893 -2.4375 1.75 C-1.633125 1.1725 -0.82875 0.595 0 0 Z " fill="#FEFCFA" transform="translate(394,104)"/>
<path d="M0 0 C-3.465 2.97 -3.465 2.97 -7 6 C-6.75 3.625 -6.75 3.625 -6 1 C-2.69333333 -1.34666667 -2.69333333 -1.34666667 0 0 Z " fill="#3E5268" transform="translate(401,405)"/>
<path d="M0 0 C0 3 0 3 -1.3125 4.38671875 C-2.875 5.59114583 -4.4375 6.79557292 -6 8 C-6 5 -6 5 -4.6875 3.61328125 C-3.125 2.40885417 -1.5625 1.20442708 0 0 Z " fill="#FDFAF6" transform="translate(366,138)"/>
<path d="M0 0 C0 3 0 3 -1.3125 4.38671875 C-2.875 5.59114583 -4.4375 6.79557292 -6 8 C-6 5 -6 5 -4.6875 3.61328125 C-3.125 2.40885417 -1.5625 1.20442708 0 0 Z " fill="#FCF8F3" transform="translate(384,116)"/>
<path d="M0 0 C3.63 0 7.26 0 11 0 C10.34 1.32 9.68 2.64 9 4 C8.67 3.01 8.34 2.02 8 1 C5.36 1 2.72 1 0 1 C0 0.67 0 0.34 0 0 Z " fill="#E6A965" transform="translate(413,65)"/>
</svg>
